<?xml version="1.0" encoding="UTF-8" standalone="no"?>
<!-- Generator: Gravit.io -->
<svg xmlns="http://www.w3.org/2000/svg" xmlns:xlink="http://www.w3.org/1999/xlink" style="isolation:isolate" viewBox="0 0 800 800" width="800pt" height="800pt"><defs><clipPath id="_clipPath_Zhcv3RP4Ux8JrOXHZri2B3riIjamJ20F"><rect width="800" height="800"/></clipPath></defs><g clip-path="url(#_clipPath_Zhcv3RP4Ux8JrOXHZri2B3riIjamJ20F)"><circle vector-effect="non-scaling-stroke" cx="400" cy="400.00000000000006" r="400" fill="rgb(238,214,2)"/><path d=" M 0 400 C 0 179.234 179.234 0 400 0 C 620.766 0 800 179.234 800 400 C 800 620.766 620.766 800 400 800 C 179.234 800 0 620.766 0 400 Z  M 15 400 C 14.99 373.95 17.61 347.96 22.83 322.43 C 27.9 297.68 35.42 273.49 45.27 250.21 C 64.65 204.48 92.68 162.92 127.82 127.82 C 162.92 92.68 204.48 64.65 250.21 45.27 C 273.49 35.42 297.68 27.9 322.44 22.83 C 347.96 17.61 373.95 14.99 400 15 C 426.05 14.99 452.04 17.61 477.56 22.83 C 502.32 27.9 526.51 35.42 549.79 45.27 C 595.52 64.65 637.08 92.68 672.18 127.82 C 707.32 162.92 735.35 204.48 754.73 250.21 C 764.58 273.49 772.1 297.68 777.17 322.44 C 782.39 347.96 785.01 373.95 785 400 C 785.01 426.05 782.39 452.04 777.17 477.56 C 772.1 502.32 764.58 526.51 754.73 549.79 C 735.35 595.52 707.32 637.08 672.18 672.18 C 637.08 707.32 595.52 735.35 549.79 754.73 C 526.51 764.58 502.32 772.1 477.56 777.17 C 452.04 782.39 426.05 785.01 400 785 C 373.95 785.01 347.96 782.39 322.44 777.17 C 297.68 772.1 273.49 764.58 250.21 754.73 C 204.48 735.35 162.92 707.32 127.82 672.18 C 92.68 637.08 64.65 595.52 45.27 549.79 C 35.42 526.51 27.9 502.32 22.83 477.56 C 17.61 452.04 14.99 426.05 15 400 Z " fill-rule="evenodd" fill="rgb(0,0,0)"/><g><path d=" M 423.368 587.501 L 376.493 587.501 C 341.974 587.501 313.993 559.519 313.993 525.001 L 313.993 462.501 L 485.868 462.501 L 485.868 525.001 C 485.867 559.518 457.884 587.501 423.368 587.501 Z " fill="rgb(170,150,140)"/><g><path d=" M 290.625 224.218 C 284.766 201.757 268.489 192.968 251.563 192.968 C 213.151 192.968 157.813 292.769 157.813 310.156 C 157.813 311.132 179.049 325.478 181.25 357.031 C 184.18 399.023 218.848 444.433 243.75 403.906 C 266.256 367.28 209.57 262.304 251.563 224.218" fill="rgb(140,120,115)"/><path d=" M 509.376 224.218 C 515.235 201.757 531.511 192.968 548.438 192.968 C 586.849 192.968 642.188 292.769 642.188 310.156 C 642.188 311.132 620.952 325.478 618.751 357.031 C 615.821 399.023 581.153 444.433 556.251 403.906 C 533.745 367.28 590.431 262.304 548.438 224.218" fill="rgb(140,120,115)"/></g><path d=" M 563.411 420.277 C 563.79 416.275 549.415 379.902 549.415 375.585 L 563.992 253.463 C 546.973 196.386 512.794 225.683 498.633 228.124 C 469.971 233.067 462.645 217.678 400.977 219.335 C 340.43 220.963 334.856 220.014 307.227 229.101 C 297.035 232.453 254.004 180.761 235.867 253.463 L 248.633 386.328 C 248.633 390.578 236.063 416.148 236.431 420.094 L 235.938 419.532 C 235.938 482.032 261.328 518.165 306.25 552.345 C 317.371 560.806 329.543 595.02 374.743 604.555 C 379.853 605.633 382.037 605.56 386.329 606.056 C 392.676 606.788 393.624 607.032 399.986 607.032 L 400 607.032 C 406.362 607.032 405.616 606.3 414.649 606.056 C 418.968 605.939 420.148 605.633 425.258 604.555 C 470.458 595.02 482.63 560.806 493.751 552.345 C 538.673 518.165 564.063 482.032 564.063 419.532 L 563.411 420.277 Z " fill="rgb(170,150,140)"/><path d=" M 399.93 376.562 L 399.93 376.562 C 385.202 376.562 371.47 383.904 363.345 396.188 C 342.994 426.958 306.18 484.335 306.18 496.758 C 306.18 513.929 337.43 574.028 399.93 539.686 C 462.43 574.029 493.68 513.93 493.68 496.758 C 493.68 484.334 456.867 426.958 436.514 396.188 C 428.388 383.905 414.659 376.562 399.93 376.562 Z " fill="rgb(210,190,175)"/><path d=" M 439.063 478.559 C 439.063 497.737 400 513.282 400 513.282 C 400 513.282 360.938 497.737 360.938 478.559 C 360.938 459.383 378.427 450.782 400 450.782 C 421.574 450.782 439.063 459.383 439.063 478.559 Z " fill="rgb(70,70,85)"/><path d=" M 485.938 513.282 C 477.308 513.282 470.598 518.375 463.494 523.766 C 455.104 530.135 446.428 536.72 433.053 536.72 C 417.349 536.72 407.813 529.123 407.813 525.782 L 407.813 518.386 C 411.82 516.527 417.766 513.538 423.759 509.681 C 439.098 499.812 446.876 489.341 446.876 478.559 C 446.876 456.607 428.914 442.969 400 442.969 C 371.087 442.969 353.125 456.607 353.125 478.559 C 353.125 489.341 360.903 499.812 376.242 509.681 C 382.234 513.538 388.181 516.527 392.188 518.386 L 392.188 525.782 C 392.188 529.122 382.652 536.72 366.948 536.72 C 353.573 536.72 344.897 530.135 336.507 523.766 C 329.403 518.375 322.693 513.282 314.063 513.282 C 309.748 513.282 306.25 516.78 306.25 521.094 C 306.25 525.409 309.748 528.907 314.063 528.907 C 317.435 528.907 321.896 532.293 327.061 536.214 C 336.031 543.02 348.315 552.345 366.948 552.345 C 380.522 552.345 392.565 548.016 400 541.376 C 407.436 548.016 419.479 552.345 433.053 552.345 C 451.686 552.345 463.97 543.02 472.94 536.214 C 478.105 532.293 482.566 528.907 485.938 528.907 C 490.253 528.907 493.751 525.409 493.751 521.094 C 493.751 516.78 490.253 513.282 485.938 513.282 Z  M 368.75 478.559 C 368.75 460.54 390.604 458.594 400 458.594 C 409.397 458.594 431.251 460.54 431.251 478.559 C 431.251 487.347 413.551 498.834 400 504.807 C 386.447 498.831 368.75 487.345 368.75 478.559 Z " fill="rgb(0,0,0)"/><path d=" M 616.157 240.617 C 598.772 215.316 572.913 185.155 548.438 185.155 C 526.477 185.155 509.666 197.656 502.834 218.79 C 492.151 223.808 484.082 221.735 469.163 217.867 C 454.061 213.953 433.38 208.593 400 208.593 C 366.621 208.593 345.94 213.953 330.838 217.867 C 315.918 221.735 307.85 223.808 297.167 218.79 C 290.335 197.656 273.524 185.155 251.563 185.155 C 227.088 185.155 201.229 215.316 183.844 240.617 C 167.567 264.307 150 297.63 150 310.156 C 150 313.714 152.14 315.701 153.859 317.296 C 158.299 321.417 171.809 333.959 173.456 357.575 C 175.465 386.37 192.091 420.997 215.448 426.729 C 217.219 427.164 219.369 427.501 221.789 427.5 C 223.782 427.5 225.957 427.272 228.249 426.683 C 229.148 455.03 235.445 479.215 247.449 500.409 C 259.005 520.809 276.187 539.288 301.519 558.561 C 303.562 560.115 306.453 563.973 309.515 568.056 C 322.637 585.557 344.597 614.845 400 614.845 C 455.404 614.845 477.364 585.557 490.485 568.057 C 493.547 563.973 496.439 560.116 498.481 558.562 C 523.813 539.288 540.994 520.809 552.551 500.41 C 564.555 479.216 570.852 455.031 571.751 426.684 C 574.044 427.273 576.219 427.501 578.211 427.501 C 580.631 427.501 582.782 427.165 584.552 426.73 C 607.909 420.998 624.535 386.37 626.544 357.576 C 628.192 333.96 641.701 321.418 646.141 317.297 C 647.86 315.701 650 313.715 650 310.157 C 650.001 297.63 632.434 264.307 616.157 240.617 Z  M 610.958 356.487 C 609.187 381.872 594.826 408.12 580.828 411.554 C 574.657 413.071 568.626 409.121 562.907 399.815 C 554.665 386.402 559.872 357.572 564.907 329.693 C 572.26 288.98 580.595 242.837 553.686 218.431 C 550.49 215.531 545.55 215.774 542.651 218.969 C 539.753 222.165 539.993 227.106 543.189 230.004 C 563.678 248.587 556.486 288.407 549.531 326.914 C 543.719 359.098 538.227 389.497 549.595 407.995 C 551.881 411.714 554.231 414.756 556.593 417.244 C 556.372 417.969 556.251 418.737 556.251 419.532 C 556.251 482.144 529.375 515.423 489.02 546.127 C 485.244 549 481.88 553.488 477.983 558.683 C 465.88 574.826 447.59 599.22 400 599.22 C 352.411 599.22 334.12 574.826 322.018 558.683 C 318.122 553.488 314.757 549 310.982 546.127 C 270.626 515.422 243.75 482.144 243.75 419.532 C 243.75 418.737 243.629 417.968 243.408 417.246 C 245.77 414.758 248.12 411.716 250.406 407.997 C 261.774 389.499 256.282 359.099 250.47 326.916 C 243.515 288.407 236.322 248.588 256.812 230.006 C 260.007 227.108 260.248 222.167 257.35 218.971 C 254.451 215.775 249.51 215.534 246.315 218.433 C 219.406 242.838 227.74 288.982 235.094 329.695 C 240.129 357.574 245.336 386.404 237.094 399.817 C 231.376 409.123 225.347 413.072 219.173 411.556 C 205.175 408.121 190.814 381.873 189.043 356.489 C 187.715 337.453 179.998 320.943 166.101 307.38 C 168.405 298.563 179.027 275.221 196.722 249.467 C 217.668 218.981 238.169 200.78 251.563 200.78 C 260.853 200.78 277.298 204.081 283.066 226.191 C 283.073 226.216 283.082 226.24 283.089 226.266 C 283.128 226.409 283.176 226.551 283.224 226.693 C 283.259 226.798 283.291 226.906 283.33 227.01 C 283.377 227.133 283.434 227.253 283.488 227.374 C 283.538 227.489 283.585 227.607 283.641 227.718 C 283.693 227.821 283.753 227.921 283.81 228.022 C 283.877 228.143 283.941 228.266 284.014 228.381 C 284.075 228.48 284.147 228.571 284.212 228.667 C 284.289 228.779 284.364 228.893 284.447 229 C 284.527 229.104 284.615 229.2 284.7 229.3 C 284.78 229.391 284.854 229.486 284.937 229.573 C 285.03 229.672 285.131 229.763 285.229 229.858 C 285.315 229.94 285.397 230.024 285.486 230.102 C 285.579 230.183 285.68 230.257 285.778 230.334 C 285.881 230.417 285.985 230.502 286.092 230.579 C 286.183 230.643 286.279 230.701 286.372 230.762 C 286.497 230.843 286.621 230.925 286.751 230.999 C 286.774 231.013 286.795 231.028 286.819 231.041 C 295.211 235.726 302.497 237.424 309.735 237.424 C 317.669 237.424 325.546 235.382 334.759 232.994 C 349.841 229.083 368.613 224.218 400 224.218 C 431.388 224.218 450.16 229.083 465.242 232.993 C 474.457 235.382 482.332 237.423 490.266 237.423 C 497.504 237.423 504.791 235.724 513.182 231.04 C 513.205 231.028 513.223 231.013 513.246 231 C 513.383 230.922 513.513 230.836 513.645 230.75 C 513.732 230.694 513.821 230.641 513.905 230.581 C 514.023 230.497 514.135 230.405 514.248 230.316 C 514.337 230.245 514.428 230.178 514.512 230.105 C 514.614 230.017 514.708 229.921 514.803 229.827 C 514.889 229.744 514.979 229.664 515.061 229.577 C 515.157 229.476 515.245 229.366 515.335 229.259 C 515.407 229.174 515.484 229.091 515.552 229.003 C 515.645 228.884 515.727 228.758 515.813 228.633 C 515.871 228.55 515.932 228.469 515.986 228.383 C 516.065 228.259 516.134 228.128 516.205 227.998 C 516.257 227.905 516.312 227.815 516.36 227.719 C 516.418 227.604 516.467 227.482 516.519 227.362 C 516.571 227.245 516.625 227.129 516.671 227.01 C 516.711 226.906 516.743 226.798 516.778 226.691 C 516.825 226.549 516.874 226.409 516.912 226.266 C 516.919 226.24 516.929 226.216 516.935 226.191 C 522.703 204.081 539.148 200.78 548.438 200.78 C 561.832 200.78 582.333 218.981 603.278 249.466 C 620.973 275.22 631.595 298.561 633.899 307.379 C 620.002 320.942 612.285 337.453 610.958 356.487 Z " fill="rgb(0,0,0)"/><circle vector-effect="non-scaling-stroke" cx="314.06282042183693" cy="372.655708314157" r="23.43754577454814" fill="rgb(0,0,0)"/><circle vector-effect="non-scaling-stroke" cx="485.93815610185675" cy="372.655708314157" r="23.43754577454814" fill="rgb(0,0,0)"/><path d=" M 422.076 558.245 C 407.427 560.802 392.573 560.802 377.924 558.245 C 373.672 557.502 369.626 560.347 368.885 564.598 C 368.143 568.848 370.988 572.895 375.238 573.637 C 383.454 575.071 391.727 575.788 400 575.788 C 408.272 575.788 416.546 575.071 424.761 573.637 C 429.012 572.895 431.856 568.848 431.114 564.598 C 430.374 560.347 426.33 557.502 422.076 558.245 Z " fill="rgb(0,0,0)"/></g></g></svg>