<?xml version="1.0" encoding="UTF-8" standalone="no"?>
<!-- Generator: Gravit.io -->
<svg xmlns="http://www.w3.org/2000/svg" xmlns:xlink="http://www.w3.org/1999/xlink" style="isolation:isolate" viewBox="0 0 800 800" width="800pt" height="800pt"><defs><clipPath id="_clipPath_bYz03WXvRhN4ZfOHrQWusoxqhwaOqTop"><rect width="800" height="800"/></clipPath></defs><g clip-path="url(#_clipPath_bYz03WXvRhN4ZfOHrQWusoxqhwaOqTop)"><circle vector-effect="non-scaling-stroke" cx="400.00000000000006" cy="399.99999999999994" r="400" fill="rgb(238,214,2)"/><path d=" M 0 400 C 0 179.234 179.234 0 400 0 C 620.766 0 800 179.234 800 400 C 800 620.766 620.766 800 400 800 C 179.234 800 0 620.766 0 400 Z  M 15 400 C 14.99 373.95 17.61 347.96 22.83 322.43 C 27.9 297.68 35.42 273.49 45.27 250.21 C 64.65 204.48 92.68 162.92 127.82 127.82 C 162.92 92.68 204.48 64.65 250.21 45.27 C 273.49 35.42 297.68 27.9 322.44 22.83 C 347.96 17.61 373.95 14.99 400 15 C 426.05 14.99 452.04 17.61 477.56 22.83 C 502.32 27.9 526.51 35.42 549.79 45.27 C 595.52 64.65 637.08 92.68 672.18 127.82 C 707.32 162.92 735.35 204.48 754.73 250.21 C 764.58 273.49 772.1 297.68 777.17 322.44 C 782.39 347.96 785.01 373.95 785 400 C 785.01 426.05 782.39 452.04 777.17 477.56 C 772.1 502.32 764.58 526.51 754.73 549.79 C 735.35 595.52 707.32 637.08 672.18 672.18 C 637.08 707.32 595.52 735.35 549.79 754.73 C 526.51 764.58 502.32 772.1 477.56 777.17 C 452.04 782.39 426.05 785.01 400 785 C 373.95 785.01 347.96 782.39 322.44 777.17 C 297.68 772.1 273.49 764.58 250.21 754.73 C 204.48 735.35 162.92 707.32 127.82 672.18 C 92.68 637.08 64.65 595.52 45.27 549.79 C 35.42 526.51 27.9 502.32 22.83 477.56 C 17.61 452.04 14.99 426.05 15 400 Z " fill-rule="evenodd" fill="rgb(0,0,0)"/><g><path d=" M 500.085 344.184 C 516.419 304.673 543.179 219.166 543.179 82.96 C 467.329 119.608 400 291.337 400 318.183 C 400 291.337 332.671 119.608 256.821 82.96 C 256.821 219.166 283.581 304.673 299.915 344.184 L 307.479 390.04 C 303.162 411.505 256.821 486.93 256.821 594.315 C 256.821 673.39 320.924 717.04 400 717.04 C 479.076 717.04 543.179 673.39 543.179 594.315 C 543.179 486.93 496.838 411.505 492.521 390.039 L 500.085 344.184 Z " fill="rgb(172,138,103)"/><path d=" M 430.681 717.01 L 369.319 717.01 C 352.444 717.01 338.638 703.204 338.638 686.329 L 338.638 686.329 C 338.638 669.454 352.444 655.648 369.319 655.648 L 430.681 655.648 C 447.556 655.648 461.363 669.454 461.363 686.329 L 461.363 686.329 C 461.363 703.204 447.556 717.01 430.681 717.01 Z " fill="rgb(225,190,155)"/><path d=" M 451.135 532.923 C 444.318 499.685 424.715 492.014 400 492.014 C 375.285 492.014 355.682 499.685 348.865 532.923 C 339.352 579.3 312.388 609.933 308.441 646.686 C 305.415 674.862 322.958 701.787 350.957 706.148 C 367.13 708.667 382.018 703.516 392.846 693.864 C 397.003 690.158 402.994 690.158 407.151 693.864 C 417.979 703.517 432.867 708.667 449.04 706.148 C 477.041 701.787 494.584 674.862 491.558 646.686 C 487.612 609.933 460.648 579.3 451.135 532.923 Z " fill="rgb(200,165,135)"/><path d=" M 439.171 629.52 C 436.035 624.822 429.693 623.532 424.989 626.683 L 399.98 643.357 L 374.97 626.683 C 370.247 623.532 363.915 624.821 360.788 629.52 C 357.652 634.219 358.92 640.572 363.625 643.702 L 394.306 664.157 C 396.024 665.301 398.002 665.875 399.98 665.875 C 401.957 665.875 403.935 665.301 405.653 664.157 L 436.334 643.702 C 441.039 640.572 442.307 634.219 439.171 629.52 Z " fill="rgb(172,138,103)"/><g><path d=" M 259.378 128.982 C 259.378 128.982 253.625 258.099 311.791 362.927 C 311.791 362.927 346.308 290.698 259.378 128.982 Z " fill="rgb(200,165,135)"/><path d=" M 540.465 128.982 C 540.465 128.982 546.218 258.099 488.051 362.927 C 488.051 362.927 453.535 290.698 540.465 128.982 Z " fill="rgb(200,165,135)"/></g><path d=" M 502.546 388.023 C 502.523 387.91 502.488 387.803 502.461 387.692 C 502.436 387.582 502.419 387.472 502.39 387.362 C 500.94 382.02 499.673 376.811 498.549 371.709 C 508.913 352.65 553.406 260.469 553.406 82.96 C 553.406 82.894 553.397 82.829 553.396 82.762 C 553.392 82.55 553.381 82.338 553.364 82.126 C 553.354 81.99 553.34 81.853 553.323 81.718 C 553.3 81.53 553.271 81.343 553.238 81.155 C 553.209 80.996 553.177 80.836 553.142 80.677 C 553.106 80.523 553.065 80.37 553.023 80.216 C 552.97 80.029 552.914 79.844 552.851 79.661 C 552.808 79.536 552.762 79.41 552.715 79.286 C 552.637 79.084 552.554 78.886 552.463 78.691 C 552.436 78.632 552.416 78.57 552.387 78.512 C 552.361 78.455 552.326 78.404 552.299 78.349 C 552.205 78.163 552.105 77.981 552 77.802 C 551.927 77.678 551.853 77.554 551.776 77.433 C 551.68 77.284 551.581 77.141 551.478 76.999 C 551.377 76.859 551.276 76.721 551.17 76.586 C 551.08 76.473 550.984 76.364 550.889 76.254 C 550.763 76.108 550.636 75.965 550.502 75.828 C 550.408 75.734 550.313 75.642 550.217 75.551 C 550.073 75.417 549.93 75.282 549.782 75.156 C 549.676 75.066 549.565 74.981 549.455 74.895 C 549.31 74.783 549.166 74.671 549.016 74.567 C 548.883 74.474 548.747 74.389 548.608 74.302 C 548.474 74.219 548.341 74.133 548.203 74.056 C 548.042 73.964 547.875 73.883 547.708 73.8 C 547.586 73.739 547.464 73.677 547.339 73.622 C 547.158 73.541 546.972 73.47 546.787 73.398 C 546.665 73.353 546.544 73.306 546.421 73.265 C 546.238 73.204 546.052 73.151 545.865 73.1 C 545.726 73.062 545.586 73.025 545.446 72.993 C 545.28 72.956 545.11 72.924 544.94 72.894 C 544.767 72.865 544.593 72.837 544.419 72.815 C 544.277 72.797 544.133 72.786 543.99 72.774 C 543.783 72.756 543.575 72.747 543.367 72.742 C 543.302 72.742 543.242 72.733 543.179 72.733 C 543.114 72.733 543.051 72.742 542.986 72.744 C 542.771 72.747 542.557 72.759 542.341 72.776 C 542.208 72.787 542.075 72.8 541.943 72.815 C 541.751 72.839 541.559 72.869 541.368 72.903 C 541.21 72.931 541.056 72.962 540.901 72.997 C 540.743 73.032 540.585 73.075 540.427 73.118 C 540.243 73.169 540.061 73.224 539.882 73.286 C 539.753 73.329 539.627 73.376 539.499 73.425 C 539.298 73.503 539.101 73.586 538.908 73.676 C 538.848 73.702 538.788 73.723 538.728 73.751 C 538.611 73.807 538.496 73.872 538.38 73.929 C 538.347 73.948 538.311 73.963 538.277 73.982 C 494.84 95.25 457.644 153.954 434.06 199.548 C 419.635 227.435 407.798 255.385 399.997 277.648 C 392.198 255.385 380.361 227.435 365.935 199.548 C 342.35 153.954 305.155 95.25 261.718 73.982 C 261.685 73.963 261.649 73.948 261.615 73.929 C 261.498 73.872 261.383 73.807 261.268 73.751 C 261.21 73.723 261.149 73.702 261.089 73.676 C 260.894 73.586 260.694 73.502 260.492 73.424 C 260.368 73.375 260.244 73.33 260.12 73.288 C 259.935 73.224 259.75 73.168 259.56 73.116 C 259.408 73.073 259.256 73.034 259.104 72.999 C 258.944 72.962 258.784 72.93 258.622 72.902 C 258.435 72.869 258.249 72.839 258.062 72.816 C 257.927 72.8 257.789 72.787 257.652 72.776 C 257.44 72.758 257.229 72.747 257.016 72.744 C 256.953 72.742 256.887 72.733 256.821 72.733 C 256.757 72.733 256.696 72.742 256.632 72.742 C 256.425 72.746 256.22 72.756 256.015 72.773 C 255.87 72.784 255.724 72.797 255.581 72.815 C 255.407 72.837 255.234 72.864 255.063 72.894 C 254.893 72.924 254.724 72.954 254.557 72.993 C 254.415 73.025 254.274 73.064 254.134 73.102 C 253.948 73.153 253.764 73.205 253.583 73.264 C 253.456 73.306 253.333 73.353 253.209 73.401 C 253.025 73.47 252.844 73.54 252.665 73.619 C 252.537 73.676 252.412 73.739 252.286 73.802 C 252.124 73.883 251.96 73.964 251.802 74.054 C 251.661 74.134 251.523 74.22 251.385 74.307 C 251.251 74.391 251.118 74.474 250.988 74.565 C 250.834 74.671 250.687 74.785 250.539 74.9 C 250.433 74.983 250.324 75.066 250.221 75.153 C 250.068 75.282 249.923 75.418 249.778 75.555 C 249.685 75.643 249.59 75.732 249.501 75.824 C 249.365 75.963 249.236 76.108 249.108 76.255 C 249.015 76.364 248.92 76.471 248.831 76.584 C 248.724 76.718 248.621 76.859 248.52 76.999 C 248.418 77.141 248.32 77.284 248.225 77.43 C 248.147 77.552 248.073 77.676 248 77.802 C 247.895 77.981 247.795 78.163 247.701 78.348 C 247.674 78.403 247.639 78.454 247.613 78.51 C 247.584 78.569 247.564 78.629 247.537 78.689 C 247.448 78.885 247.363 79.083 247.285 79.285 C 247.237 79.41 247.192 79.534 247.149 79.66 C 247.086 79.842 247.03 80.028 246.977 80.214 C 246.935 80.369 246.895 80.523 246.858 80.676 C 246.823 80.834 246.791 80.994 246.762 81.154 C 246.729 81.342 246.7 81.529 246.677 81.717 C 246.66 81.852 246.647 81.989 246.637 82.124 C 246.619 82.337 246.609 82.549 246.605 82.761 C 246.603 82.829 246.594 82.894 246.594 82.96 C 246.594 260.469 291.087 352.65 301.451 371.709 C 300.328 376.811 299.06 382.02 297.61 387.362 C 297.581 387.472 297.564 387.582 297.539 387.693 C 297.512 387.803 297.477 387.91 297.454 388.023 C 296.602 392.259 292.922 401.002 288.662 411.127 C 273.959 446.06 246.594 511.087 246.594 594.315 C 246.594 635.046 262.418 669.277 292.355 693.308 C 319.639 715.205 357.868 727.267 400 727.267 C 442.132 727.267 480.361 715.205 507.645 693.308 C 537.582 669.277 553.406 635.046 553.406 594.315 C 553.406 511.087 526.041 446.06 511.338 411.127 C 507.078 401.002 503.398 392.259 502.546 388.023 Z  M 505.963 296.052 C 501.445 311.586 496.908 324.445 492.88 334.677 C 487.851 273.996 506.415 231.038 524.516 189.221 C 525.615 186.681 526.71 184.15 527.795 181.626 C 522.423 231.141 513.725 269.366 505.963 296.052 Z  M 272.176 181.557 C 273.27 184.105 274.376 186.658 275.485 189.222 C 293.581 231.028 312.14 273.974 307.127 334.628 C 295.697 305.502 280.125 254.912 272.176 181.557 Z  M 400 697.461 C 403.337 700.798 407.324 703.826 411.719 706.443 C 407.82 706.687 403.909 706.814 400 706.814 C 396.091 706.814 392.18 706.687 388.281 706.443 C 392.676 703.825 396.663 700.798 400 697.461 Z  M 490.809 680.052 C 491.626 675.68 492.044 670.967 492.044 665.904 C 492.044 660.256 487.465 655.677 481.817 655.677 C 476.169 655.677 471.59 660.256 471.59 665.904 C 471.59 677.108 469.072 685.311 464.108 690.288 C 460.143 694.264 454.487 696.279 447.295 696.279 C 428.149 696.279 410.227 682.425 410.227 676.131 L 410.227 661.15 L 436.355 643.732 C 441.054 640.599 442.325 634.25 439.191 629.549 C 436.058 624.849 429.71 623.581 425.009 626.713 L 400 643.387 L 374.991 626.714 C 370.293 623.579 363.942 624.85 360.809 629.551 C 357.675 634.25 358.945 640.6 363.645 643.733 L 389.773 661.15 L 389.773 676.131 C 389.773 682.425 371.851 696.279 352.704 696.279 C 345.513 696.279 339.856 694.264 335.89 690.288 C 330.928 685.311 328.41 677.108 328.41 665.904 C 328.41 660.256 323.831 655.677 318.183 655.677 C 312.535 655.677 307.956 660.256 307.956 665.904 C 307.956 670.967 308.374 675.68 309.191 680.052 C 283.96 661.65 267.048 633.419 267.048 594.315 C 267.048 515.214 293.371 452.664 307.514 419.061 C 312.475 407.273 316.083 398.69 317.415 392.474 C 343.7 295.331 317.434 234.643 294.257 181.097 C 282.86 154.766 271.98 129.624 268.335 102.139 C 294.136 121.687 321.788 158.714 347.772 208.945 C 370.303 252.502 384.05 291.263 388.328 309.328 C 379.899 311.22 371.515 315.164 363.273 321.162 C 358.707 324.487 357.701 330.883 361.025 335.449 C 364.35 340.016 370.745 341.023 375.312 337.698 C 383.779 331.536 392.086 328.41 400 328.41 C 407.914 328.41 416.221 331.536 424.689 337.7 C 426.506 339.024 428.613 339.66 430.7 339.66 C 433.859 339.66 436.975 338.2 438.977 335.452 C 442.3 330.885 441.294 324.488 436.728 321.165 C 428.488 315.166 420.104 311.223 411.673 309.331 C 415.952 291.266 429.698 252.505 452.23 208.948 C 478.213 158.716 505.866 121.688 531.666 102.141 C 528.021 129.627 517.141 154.769 505.744 181.1 C 482.567 234.646 456.303 295.333 482.586 392.477 C 483.918 398.692 487.526 407.275 492.487 419.063 C 506.629 452.664 532.952 515.214 532.952 594.315 C 532.952 633.419 516.04 661.65 490.809 680.052 Z " fill="rgb(0,0,0)"/><path d=" M 313.07 461.363 C 303.607 461.363 297.729 471.16 297.729 486.93 C 297.729 502.7 303.607 512.498 313.07 512.498 C 322.532 512.498 328.41 502.7 328.41 486.93 C 328.41 471.16 322.532 461.363 313.07 461.363 Z " fill="rgb(0,0,0)"/><path d=" M 471.59 486.93 C 471.59 502.7 477.468 512.498 486.93 512.498 C 496.393 512.498 502.271 502.7 502.271 486.93 C 502.271 471.16 496.393 461.363 486.93 461.363 C 477.468 461.363 471.59 471.16 471.59 486.93 Z " fill="rgb(0,0,0)"/></g></g></svg>