<?xml version="1.0" encoding="UTF-8" standalone="no"?>
<!-- Generator: Gravit.io -->
<svg xmlns="http://www.w3.org/2000/svg" xmlns:xlink="http://www.w3.org/1999/xlink" style="isolation:isolate" viewBox="0 0 800 800" width="800pt" height="800pt"><defs><clipPath id="_clipPath_je9mYCmLgN2jSEI9IikaeTlmQI36KdA7"><rect width="800" height="800"/></clipPath></defs><g clip-path="url(#_clipPath_je9mYCmLgN2jSEI9IikaeTlmQI36KdA7)"><rect width="800" height="800" style="fill:rgb(255,0,0)"/><rect x="0" y="0" width="799.85" height="800" transform="matrix(1,0,0,1,0,0)" fill="rgb(116,189,225)" fill-opacity="0.6"/><g><g><path d=" M 400 566.667 L 300 666.667 M 400 566.667 L 500 666.667 M 400 566.667 L 400 400 M 400 566.667 L 400 700 M 400 233.333 L 300 133.333 M 400 233.333 L 500 133.333 M 400 233.333 L 400 400 M 400 233.333 L 400 100 M 400 400 L 255.662 316.665 M 400 400 L 544.337 483.33 M 400 400 L 255.662 483.33 M 400 400 L 544.337 316.665 M 544.337 483.33 L 580.94 619.933 M 544.337 483.33 L 680.94 446.73 M 544.337 483.33 L 659.81 550 M 255.662 316.665 L 119.06 353.267 M 255.662 316.665 L 219.06 180.062 M 255.662 316.665 L 140.194 250 M 544.337 316.665 L 680.94 353.267 M 544.337 316.665 L 580.94 180.062 M 544.337 316.665 L 659.81 250 M 255.662 483.33 L 219.06 619.933 M 255.662 483.33 L 119.06 446.73 M 255.662 483.33 L 140.194 550" fill="none" vector-effect="non-scaling-stroke" stroke-width="50" stroke="rgb(255,255,255)" stroke-linejoin="round" stroke-linecap="round" stroke-miterlimit="4"/></g></g></g></svg>