<?xml version="1.0" encoding="UTF-8" standalone="no"?>
<!-- Generator: Gravit.io -->
<svg xmlns="http://www.w3.org/2000/svg" xmlns:xlink="http://www.w3.org/1999/xlink" style="isolation:isolate" viewBox="0 0 800 800" width="800pt" height="800pt"><defs><clipPath id="_clipPath_A1ZwVV51RRkLH6pgSI51OFPsqCo33H7V"><rect width="800" height="800"/></clipPath></defs><g clip-path="url(#_clipPath_A1ZwVV51RRkLH6pgSI51OFPsqCo33H7V)"><path d=" M 0 400 C 0 179.234 179.234 0 400 0 C 620.766 0 800 179.234 800 400 C 800 620.766 620.766 800 400 800 C 179.234 800 0 620.766 0 400 Z  M 29 400 C 28.99 374.89 31.52 349.84 36.55 325.24 C 41.43 301.4 48.67 278.09 58.16 255.67 C 76.84 211.6 103.85 171.55 137.72 137.72 C 171.55 103.85 211.6 76.84 255.67 58.16 C 278.09 48.67 301.4 41.43 325.24 36.54 C 349.84 31.52 374.89 28.99 400 29 C 425.11 28.99 450.16 31.52 474.76 36.54 C 498.6 41.43 521.91 48.67 544.33 58.16 C 588.4 76.84 628.45 103.85 662.28 137.72 C 696.15 171.55 723.16 211.6 741.84 255.67 C 751.33 278.09 758.57 301.4 763.46 325.24 C 768.48 349.84 771.01 374.88 771 399.99 C 771 399.99 771 400 771 400 L 771 400 L 771 400.01 C 771.01 425.12 768.48 450.16 763.46 474.76 C 758.57 498.6 751.33 521.91 741.84 544.33 C 723.16 588.4 696.15 628.45 662.28 662.28 C 628.45 696.15 588.4 723.16 544.33 741.84 C 521.91 751.33 498.6 758.57 474.76 763.46 C 450.16 768.48 425.12 771.01 400.01 771 C 400.01 771 400 771 400 771 L 400 771 L 399.99 771 C 374.88 771.01 349.84 768.48 325.24 763.46 C 301.4 758.57 278.09 751.33 255.67 741.84 C 211.6 723.16 171.55 696.15 137.72 662.28 C 103.85 628.45 76.84 588.4 58.16 544.33 C 48.67 521.91 41.43 498.6 36.54 474.76 C 31.52 450.16 28.99 425.11 29 400 Z " fill-rule="evenodd" fill="rgb(149,74,0)"/></g></svg>