<?xml version="1.0" encoding="UTF-8" standalone="no"?>
<!-- Generator: Gravit.io -->
<svg xmlns="http://www.w3.org/2000/svg" xmlns:xlink="http://www.w3.org/1999/xlink" style="isolation:isolate" viewBox="0 0 800 800" width="800pt" height="800pt"><defs><clipPath id="_clipPath_WXg8sohquhsLP3DXxmRKQAB8qJwwL4aF"><rect width="800" height="800"/></clipPath></defs><g clip-path="url(#_clipPath_WXg8sohquhsLP3DXxmRKQAB8qJwwL4aF)"><circle vector-effect="non-scaling-stroke" cx="400" cy="400.00000000000006" r="400" fill="rgb(185,185,185)"/><path d=" M 0 400 C 0 179.234 179.234 0 400 0 C 620.766 0 800 179.234 800 400 C 800 620.766 620.766 800 400 800 C 179.234 800 0 620.766 0 400 Z  M 15 400 C 14.99 373.95 17.61 347.96 22.83 322.43 C 27.9 297.68 35.42 273.49 45.27 250.21 C 64.65 204.48 92.68 162.92 127.82 127.82 C 162.92 92.68 204.48 64.65 250.21 45.27 C 273.49 35.42 297.68 27.9 322.44 22.83 C 347.96 17.61 373.95 14.99 400 15 C 426.05 14.99 452.04 17.61 477.56 22.83 C 502.32 27.9 526.51 35.42 549.79 45.27 C 595.52 64.65 637.08 92.68 672.18 127.82 C 707.32 162.92 735.35 204.48 754.73 250.21 C 764.58 273.49 772.1 297.68 777.17 322.44 C 782.39 347.96 785.01 373.95 785 400 C 785.01 426.05 782.39 452.04 777.17 477.56 C 772.1 502.32 764.58 526.51 754.73 549.79 C 735.35 595.52 707.32 637.08 672.18 672.18 C 637.08 707.32 595.52 735.35 549.79 754.73 C 526.51 764.58 502.32 772.1 477.56 777.17 C 452.04 782.39 426.05 785.01 400 785 C 373.95 785.01 347.96 782.39 322.44 777.17 C 297.68 772.1 273.49 764.58 250.21 754.73 C 204.48 735.35 162.92 707.32 127.82 672.18 C 92.68 637.08 64.65 595.52 45.27 549.79 C 35.42 526.51 27.9 502.32 22.83 477.56 C 17.61 452.04 14.99 426.05 15 400 Z " fill-rule="evenodd" fill="rgb(0,0,0)"/><g><path d=" M 618.279 164.608 C 664.635 167.164 647.779 311.557 572.362 335.055 L 572.349 335.055 C 571.622 297.697 556.471 271.029 525.98 248.27 C 520.265 243.996 514.751 239.572 509.187 235.187 C 582.65 203.722 569.655 161.915 618.279 164.608 Z " fill="rgb(163,135,94)"/><path d=" M 345.973 408.694 C 346.136 409.897 346.324 411.038 346.536 412.116 C 347.765 418.344 350.359 423.971 353.755 429.009 C 339.569 489.852 308.514 523.023 338.766 561.872 C 356.825 585.057 393.719 583.177 399.997 561.872 C 406.275 583.177 443.17 585.057 461.229 561.872 C 491.48 523.023 460.464 489.788 446.278 428.946 C 449.662 423.932 452.231 418.318 453.458 412.115 C 453.671 411.037 453.859 409.897 454.022 408.693 C 459.222 370.846 441.239 270.353 400.848 270.641 L 399.145 270.641 C 358.755 270.353 340.771 370.847 345.973 408.694 Z  M 572.35 335.056 C 572.914 362.876 565.456 396.625 550.394 439.121 C 509.665 553.938 547.148 635.246 400.349 635.508 L 399.647 635.508 C 252.849 635.246 290.332 553.937 249.603 439.121 C 234.526 396.625 227.082 362.864 227.647 335.043 C 228.374 297.685 243.537 271.029 274.016 248.271 C 279.731 243.997 285.232 239.586 290.796 235.188 C 316.612 214.874 343.731 195.312 398.996 195.312 L 401.001 195.312 C 456.268 195.312 483.386 214.862 509.19 235.188 C 514.754 239.574 520.268 243.997 525.983 248.271 C 556.472 271.03 571.623 297.698 572.35 335.056 Z " fill="rgb(219,182,126)"/><path d=" M 446.279 428.945 C 460.465 489.787 491.481 523.022 461.23 561.871 C 443.171 585.056 406.276 583.176 399.998 561.871 L 400.776 461.728 C 400.775 461.729 431.379 451.076 446.279 428.945 Z " fill="rgb(163,135,94)"/><path d=" M 400.849 270.641 C 441.24 270.353 459.223 370.847 454.023 408.693 C 452.319 383.315 418.959 382.276 400.775 412.115 L 399.221 412.115 C 381.037 382.277 347.677 383.316 345.973 408.693 C 340.772 370.846 358.755 270.353 399.146 270.641 C 399.146 270.641 400.849 270.641 400.849 270.641 Z " fill="rgb(240,223,158)"/><path d=" M 454.023 408.694 C 453.86 409.897 453.672 411.038 453.459 412.116 C 452.231 418.318 449.662 423.933 446.279 428.947 C 431.379 451.078 400.776 461.73 400.776 461.73 L 399.222 461.73 C 399.222 461.73 368.682 451.09 353.756 429.01 C 350.36 423.972 347.765 418.346 346.537 412.117 C 346.325 411.039 346.137 409.899 345.974 408.695 C 347.678 383.317 381.038 382.278 399.222 412.117 L 400.776 412.117 C 418.959 382.276 452.319 383.316 454.023 408.694 Z " fill="rgb(110,91,63)"/><g><path d=" M 400.775 461.729 L 399.997 561.872 C 393.719 583.177 356.825 585.057 338.766 561.872 C 308.514 523.023 339.569 489.852 353.755 429.009 C 368.68 451.091 399.221 461.729 399.221 461.729 L 400.775 461.729 L 400.775 461.729 Z " fill="rgb(163,135,94)"/><path d=" M 290.794 235.188 C 285.23 239.586 279.728 243.997 274.014 248.271 C 243.536 271.029 228.372 297.685 227.645 335.043 L 227.607 335.043 C 152.216 311.521 135.373 167.166 181.717 164.608 C 230.34 161.915 217.345 203.722 290.794 235.188 Z " fill="rgb(163,135,94)"/></g><path d=" M 618.858 154.153 C 588.822 152.492 576.903 166.45 564.276 181.231 C 553.548 193.792 540.337 209.247 510.667 223.057 C 506.164 219.575 501.964 216.45 497.51 213.386 C 492.745 210.106 486.223 211.311 482.947 216.076 C 479.667 220.84 480.872 227.361 485.636 230.64 C 491.215 234.48 496.479 238.513 502.658 243.378 C 502.68 243.396 502.702 243.413 502.724 243.431 L 506.011 246.029 C 510.439 249.533 515.018 253.153 519.714 256.667 C 548.23 277.951 561.233 302.192 561.877 335.271 C 562.401 361.152 555.615 393.04 540.519 435.622 C 529.466 466.785 524.078 495.296 519.325 520.45 C 513.003 553.908 508.009 580.336 492.691 597.827 C 476.286 616.562 447.8 624.955 400.345 625.039 L 399.662 625.039 C 352.189 624.955 323.703 616.561 307.298 597.826 C 291.982 580.336 286.986 553.907 280.664 520.449 C 275.91 495.295 270.522 466.784 259.469 435.621 C 244.375 393.07 237.588 361.178 238.114 335.248 C 238.758 302.193 251.761 277.957 280.284 256.66 C 285.149 253.021 289.891 249.264 294.476 245.631 L 297.237 243.445 C 297.272 243.418 297.307 243.39 297.34 243.363 C 324.41 222.068 349.107 205.785 398.993 205.785 C 399.331 205.785 399.665 205.766 399.996 205.734 C 400.326 205.766 400.661 205.785 401 205.785 C 408.956 205.785 416.6 206.218 423.72 207.073 C 424.143 207.125 424.564 207.149 424.98 207.149 C 430.206 207.149 434.727 203.243 435.365 197.923 C 436.054 192.181 431.958 186.966 426.215 186.277 C 418.27 185.322 409.786 184.839 401 184.839 C 400.662 184.839 400.327 184.858 399.996 184.89 C 399.666 184.858 399.332 184.839 398.993 184.839 C 345.677 184.839 316.991 201.797 289.327 223.061 C 259.654 209.251 246.445 193.794 235.717 181.232 C 223.092 166.451 211.162 152.487 181.14 154.153 C 162.394 155.187 149.725 171.188 146.387 198.055 C 143.216 223.575 148.658 255.047 160.947 282.243 C 174.163 311.493 193.949 332.556 217.204 342.372 C 217.907 369.374 225.147 401.508 239.732 442.623 C 250.245 472.261 255.473 499.928 260.086 524.338 C 266.728 559.483 272.463 589.836 291.543 611.623 C 312.266 635.289 345.601 645.885 399.647 645.983 L 400.368 645.983 C 454.396 645.885 487.73 635.289 508.453 611.623 C 527.533 589.835 533.268 559.482 539.91 524.338 C 544.522 499.927 549.75 472.26 560.265 442.62 C 574.85 401.473 582.088 369.339 582.791 342.377 C 606.04 332.564 625.822 311.511 639.04 282.274 C 651.334 255.08 656.782 223.606 653.616 198.079 C 650.28 171.196 637.61 155.187 618.858 154.153 Z  M 167.173 200.639 C 167.899 194.795 171.136 175.681 182.297 175.066 C 201.974 173.975 207.931 180.947 219.792 194.837 C 230.116 206.925 243.701 222.816 271.07 237.363 C 269.965 238.211 268.856 239.053 267.75 239.881 C 238.483 261.735 222.519 287.348 218.3 319.599 C 180.362 297.88 162.55 237.835 167.173 200.639 Z  M 581.696 319.605 C 577.476 287.337 561.513 261.725 532.254 239.886 C 531.143 239.056 530.032 238.212 528.923 237.361 C 556.294 222.813 569.878 206.923 580.205 194.834 C 592.068 180.945 598.019 173.972 617.704 175.065 C 628.87 175.68 632.106 194.808 632.831 200.657 C 637.446 237.856 619.627 297.889 581.696 319.605 Z " fill="rgb(0,0,0)"/><path d=" M 459.254 216.078 C 460.559 216.614 461.907 216.867 463.235 216.867 C 467.355 216.867 471.26 214.422 472.924 210.377 C 475.125 205.028 472.572 198.908 467.223 196.708 C 466.046 196.224 464.853 195.752 463.642 195.291 C 458.236 193.237 452.188 195.954 450.133 201.36 C 448.078 206.767 450.795 212.814 456.202 214.87 C 457.234 215.263 458.251 215.665 459.254 216.078 Z " fill="rgb(0,0,0)"/><path d=" M 373.045 589.038 C 376.091 589.038 379.134 588.762 382.127 588.194 C 389.105 586.869 395.204 584.022 399.998 580.007 C 404.794 584.023 410.892 586.869 417.87 588.194 C 420.863 588.762 423.905 589.038 426.952 589.038 C 443.072 589.038 459.357 581.316 469.491 568.306 C 494.285 536.467 483.6 507.197 471.227 473.305 C 466.628 460.708 461.465 446.566 457.487 430.734 C 460.506 425.422 462.602 419.86 463.734 414.144 C 463.844 413.589 463.946 413.013 464.043 412.434 C 464.375 411.38 464.54 410.261 464.518 409.102 C 466.613 392.363 464.782 367.059 459.674 342.651 C 456.098 325.562 447.667 294.126 431.393 275.598 C 422.399 265.36 412.188 260.17 401.031 260.17 C 400.947 260.17 400.859 260.17 400.775 260.171 C 400.512 260.173 400.254 260.195 399.996 260.216 C 399.739 260.195 399.481 260.173 399.218 260.171 C 399.133 260.17 399.046 260.17 398.962 260.17 C 387.806 260.17 377.592 265.361 368.599 275.598 C 352.326 294.126 343.896 325.562 340.319 342.651 C 335.208 367.071 333.379 392.387 335.476 409.112 C 335.455 410.266 335.62 411.381 335.95 412.429 C 336.048 413.015 336.151 413.592 336.26 414.141 C 337.383 419.839 339.499 425.403 342.535 430.748 C 338.551 446.61 333.388 460.792 328.777 473.404 C 316.404 507.249 305.716 536.479 330.502 568.307 C 340.638 581.318 356.922 589.038 373.045 589.038 Z  M 362.44 423.154 C 359.579 418.909 357.685 414.514 356.81 410.077 C 356.711 409.577 356.618 409.038 356.53 408.477 C 357.055 404.029 359.093 401.398 362.783 400.495 C 370.179 398.686 381.994 403.967 390.28 417.565 C 392.18 420.684 395.57 422.587 399.222 422.587 L 400.775 422.587 C 404.427 422.587 407.816 420.684 409.717 417.565 C 418.004 403.966 429.82 398.685 437.215 400.495 C 440.915 401.401 442.955 404.046 443.469 408.47 C 443.381 409.026 443.288 409.57 443.188 410.081 C 442.311 414.508 440.44 418.87 437.617 423.061 C 437.604 423.081 437.592 423.1 437.579 423.119 C 427.218 438.488 407.206 447.814 400.001 450.794 C 392.783 447.805 372.804 438.488 362.44 423.154 Z  M 452.967 555.435 C 444.481 566.328 431.187 569.398 421.776 567.614 C 418.407 566.974 412.69 565.163 410.486 560.122 L 411.193 468.785 C 418.529 465.512 430.439 459.371 441.145 450.117 C 444.502 461.172 448.175 471.231 451.553 480.487 C 464.438 515.784 469.881 533.715 452.967 555.435 Z  M 384.339 289.42 C 389.247 283.832 394.035 281.114 398.975 281.114 C 399.034 281.114 399.089 281.115 399.148 281.114 C 399.436 281.114 399.717 281.094 399.998 281.071 C 400.28 281.094 400.562 281.114 400.848 281.114 C 400.908 281.114 400.965 281.114 401.021 281.114 C 405.961 281.114 410.75 283.832 415.658 289.42 C 431.613 307.586 441.749 348.9 443.995 380.667 C 443.403 380.483 442.81 380.3 442.198 380.151 C 430.007 377.166 413.421 381.233 399.999 395.768 C 386.577 381.232 369.99 377.169 357.801 380.151 C 357.189 380.301 356.593 380.484 356.001 380.668 C 358.245 348.909 368.382 307.588 384.339 289.42 Z  M 348.451 480.595 C 351.843 471.318 355.527 461.227 358.897 450.139 C 370.335 460.013 383.115 466.34 390.242 469.413 L 389.539 560.05 C 387.356 565.144 381.604 566.972 378.219 567.614 C 368.809 569.401 355.513 566.327 347.029 555.436 C 330.127 533.732 335.57 515.832 348.451 480.595 Z " fill="rgb(0,0,0)"/><path d=" M 292.825 314.733 C 275.179 314.733 260.822 329.083 260.822 346.722 C 260.822 352.506 265.511 357.194 271.294 357.194 C 277.077 357.194 281.766 352.506 281.766 346.722 C 281.766 340.632 286.726 335.678 292.824 335.678 C 298.914 335.678 303.868 340.633 303.868 346.722 C 303.868 352.506 308.557 357.194 314.34 357.194 C 320.123 357.194 324.812 352.506 324.812 346.722 C 324.814 329.083 310.464 314.733 292.825 314.733 Z " fill="rgb(0,0,0)"/><path d=" M 496.126 346.722 C 496.126 340.632 501.081 335.678 507.172 335.678 C 513.268 335.678 518.229 340.633 518.229 346.722 C 518.229 352.506 522.918 357.194 528.701 357.194 C 534.484 357.194 539.173 352.506 539.173 346.722 C 539.173 329.083 524.818 314.733 507.171 314.733 C 489.531 314.733 475.18 329.083 475.18 346.722 C 475.18 352.506 479.87 357.194 485.653 357.194 C 491.437 357.195 496.126 352.506 496.126 346.722 Z " fill="rgb(0,0,0)"/></g></g></svg>