<?xml version="1.0" encoding="UTF-8" standalone="no"?>
<!-- Generator: Gravit.io -->
<svg xmlns="http://www.w3.org/2000/svg" xmlns:xlink="http://www.w3.org/1999/xlink" style="isolation:isolate" viewBox="0 0 800 800" width="800pt" height="800pt"><defs><clipPath id="_clipPath_k95RZxHNxLPt0tMJ0v0mFnsm6pp6Uw1K"><rect width="800" height="800"/></clipPath></defs><g clip-path="url(#_clipPath_k95RZxHNxLPt0tMJ0v0mFnsm6pp6Uw1K)"><circle vector-effect="non-scaling-stroke" cx="400" cy="400.00000000000006" r="400" fill="rgb(185,185,185)"/><path d=" M 0 400 C 0 179.234 179.234 0 400 0 C 620.766 0 800 179.234 800 400 C 800 620.766 620.766 800 400 800 C 179.234 800 0 620.766 0 400 Z  M 15 400 C 14.99 373.95 17.61 347.96 22.83 322.43 C 27.9 297.68 35.42 273.49 45.27 250.21 C 64.65 204.48 92.68 162.92 127.82 127.82 C 162.92 92.68 204.48 64.65 250.21 45.27 C 273.49 35.42 297.68 27.9 322.44 22.83 C 347.96 17.61 373.95 14.99 400 15 C 426.05 14.99 452.04 17.61 477.56 22.83 C 502.32 27.9 526.51 35.42 549.79 45.27 C 595.52 64.65 637.08 92.68 672.18 127.82 C 707.32 162.92 735.35 204.48 754.73 250.21 C 764.58 273.49 772.1 297.68 777.17 322.44 C 782.39 347.96 785.01 373.95 785 400 C 785.01 426.05 782.39 452.04 777.17 477.56 C 772.1 502.32 764.58 526.51 754.73 549.79 C 735.35 595.52 707.32 637.08 672.18 672.18 C 637.08 707.32 595.52 735.35 549.79 754.73 C 526.51 764.58 502.32 772.1 477.56 777.17 C 452.04 782.39 426.05 785.01 400 785 C 373.95 785.01 347.96 782.39 322.44 777.17 C 297.68 772.1 273.49 764.58 250.21 754.73 C 204.48 735.35 162.92 707.32 127.82 672.18 C 92.68 637.08 64.65 595.52 45.27 549.79 C 35.42 526.51 27.9 502.32 22.83 477.56 C 17.61 452.04 14.99 426.05 15 400 Z " fill-rule="evenodd" fill="rgb(0,0,0)"/><g><path d=" M 632.554 361.165 C 626.845 340.682 624.14 319.492 624.14 298.228 L 624.14 150.069 C 624.14 134.749 605.687 127.005 594.801 137.784 C 576.792 155.619 547.703 184.537 524.957 207.327 C 520.619 211.673 514.301 213.48 508.399 211.785 C 461.674 198.363 338.308 198.602 291.595 211.84 C 285.706 213.509 279.413 211.7 275.089 207.368 C 252.336 184.571 223.224 155.629 205.204 137.784 C 194.319 127.005 175.865 134.749 175.865 150.069 L 175.865 298.192 C 175.865 320.114 172.655 341.865 166.94 363.028 C 159.325 391.226 156.673 421.454 160.097 452.77 C 172.301 564.352 262.25 654.155 373.885 665.875 C 518.906 681.101 641.382 567.789 641.382 425.87 C 641.382 403.448 638.293 381.756 632.554 361.165 Z " fill="rgb(255,145,75)"/><path d=" M 453.478 480.98 C 430.885 476.132 410.112 486.059 398.925 502.905 C 387.739 486.059 366.965 476.133 344.373 480.98 C 324.978 485.141 309.346 500.86 305.275 520.273 C 298.259 553.731 323.6 583.198 355.823 583.198 C 370.224 583.198 383.24 577.307 392.615 567.807 C 396.161 564.214 401.694 564.214 405.239 567.807 C 414.613 577.305 427.63 583.198 442.031 583.198 C 474.254 583.198 499.595 553.732 492.579 520.273 C 488.505 500.859 472.873 485.141 453.478 480.98 Z " fill="rgb(255,255,255)"/><path d=" M 415.035 529.826 C 406.768 541.4 393.238 541.4 384.972 529.826 L 371.932 511.57 C 363.665 499.996 368.538 490.526 382.761 490.526 L 417.244 490.526 C 431.468 490.526 436.343 499.995 428.074 511.57 L 415.035 529.826 Z " fill="rgb(230,115,50)"/><path d=" M 400.004 547.127 C 391.571 547.128 383.536 542.648 377.956 534.836 L 364.916 516.582 C 359.033 508.345 357.695 499.664 361.247 492.763 C 364.798 485.864 372.64 481.905 382.761 481.905 L 417.243 481.905 C 427.366 481.905 435.208 485.864 438.759 492.764 C 442.31 499.663 440.972 508.345 435.089 516.582 L 422.05 534.837 C 416.472 542.647 408.436 547.127 400.004 547.127 Z  M 382.761 499.148 C 378.293 499.148 376.706 500.406 376.579 500.652 C 376.452 500.9 376.351 502.923 378.947 506.558 L 391.987 524.813 C 394.322 528.082 397.17 529.884 400.004 529.883 C 402.837 529.883 405.684 528.082 408.02 524.814 L 408.02 524.814 L 421.059 506.558 C 423.656 502.923 423.555 500.9 423.428 500.652 C 423.301 500.406 421.712 499.148 417.244 499.148 L 382.761 499.148 L 382.761 499.148 Z " fill="rgb(0,0,0)"/><g><path d=" M 201.727 305.182 C 210.42 290.135 222.227 277.89 232.365 269.097 C 243.808 259.174 246.039 242.341 237.639 229.74 L 184.485 150.009" fill="rgb(230,115,50)"/><path d=" M 598.278 305.182 C 589.584 290.135 577.777 277.89 567.64 269.097 C 556.197 259.174 553.965 242.341 562.366 229.74 L 615.518 150.01" fill="rgb(230,115,50)"/></g><g><circle vector-effect="non-scaling-stroke" cx="305.17715835469426" cy="425.8745215206252" r="34.48303841498307" fill="rgb(70,70,85)"/><circle vector-effect="non-scaling-stroke" cx="494.83494729940526" cy="425.8745215206252" r="34.48303841498304" fill="rgb(70,70,85)"/></g><g><circle vector-effect="non-scaling-stroke" cx="245.9057316147709" cy="512.076729246561" r="34.483038414983056" fill="rgb(230,115,50)"/><circle vector-effect="non-scaling-stroke" cx="556.2509220250095" cy="512.076729246561" r="34.48303841498307" fill="rgb(230,115,50)"/><path d=" M 453.882 203.888 L 453.882 272.853 C 453.882 282.374 461.601 290.094 471.123 290.094 C 480.645 290.094 488.365 282.375 488.365 272.853 L 488.365 208.199 C 476.31 206.514 465.533 204.763 453.882 203.888 Z " fill="rgb(230,115,50)"/><path d=" M 402.159 201.734 C 396.306 201.734 390.582 201.914 384.918 202.18 L 384.918 319.19 C 384.918 328.711 392.636 336.432 402.159 336.432 C 411.681 336.432 419.401 328.712 419.401 319.19 L 419.401 202.178 C 413.735 201.913 408.01 201.734 402.159 201.734 Z " fill="rgb(230,115,50)"/><path d=" M 315.951 207.121 L 315.951 274.411 C 315.951 283.932 323.669 291.653 333.192 291.653 C 342.713 291.653 350.434 283.933 350.434 274.411 L 350.434 203.888 C 338.512 203.888 326.592 205.638 315.951 207.121 Z " fill="rgb(230,115,50)"/></g><path d=" M 201.719 313.804 C 200.256 313.804 198.773 313.431 197.414 312.646 C 193.291 310.264 191.88 304.99 194.263 300.868 C 202.055 287.384 212.973 274.503 226.718 262.584 C 234.83 255.549 236.442 243.484 230.467 234.522 L 177.313 154.792 C 174.671 150.83 175.741 145.478 179.704 142.836 C 183.665 140.195 189.018 141.265 191.659 145.228 L 244.812 224.957 C 255.591 241.125 252.668 262.902 238.013 275.611 C 225.719 286.272 216.022 297.673 209.191 309.495 C 207.595 312.259 204.697 313.804 201.719 313.804 Z " fill="rgb(0,0,0)"/><path d=" M 598.286 313.804 C 595.306 313.804 592.411 312.259 590.813 309.495 C 583.981 297.672 574.285 286.272 561.992 275.611 C 547.336 262.902 544.414 241.125 555.193 224.957 L 608.345 145.229 C 610.984 141.267 616.335 140.194 620.301 142.837 C 624.263 145.479 625.333 150.83 622.692 154.793 L 569.54 234.522 C 563.564 243.484 565.176 255.549 573.289 262.584 C 587.032 274.503 597.951 287.383 605.743 300.868 C 608.125 304.991 606.714 310.264 602.59 312.646 C 601.234 313.431 599.75 313.804 598.286 313.804 Z " fill="rgb(0,0,0)"/><path d=" M 356.9 593.975 C 336.066 593.975 317.36 581.575 309.242 562.385 C 307.387 558.001 309.438 552.942 313.823 551.087 C 318.207 549.233 323.267 551.282 325.123 555.669 C 330.535 568.464 343.008 576.733 356.898 576.733 C 375.912 576.733 391.38 561.264 391.38 542.251 C 391.38 537.49 395.241 533.63 400.002 533.63 C 404.763 533.63 408.623 537.49 408.623 542.251 C 408.625 570.772 385.421 593.975 356.9 593.975 Z " fill="rgb(0,0,0)"/><path d=" M 443.106 593.975 C 414.585 593.975 391.38 570.772 391.38 542.25 C 391.38 537.489 395.241 533.629 400.002 533.629 C 404.763 533.629 408.623 537.489 408.623 542.25 C 408.623 561.264 424.092 576.732 443.106 576.732 C 456.998 576.732 469.47 568.464 474.881 555.668 C 476.737 551.284 481.794 549.23 486.179 551.086 C 490.564 552.941 492.616 557.999 490.761 562.384 C 482.648 581.575 463.941 593.975 443.106 593.975 Z " fill="rgb(0,0,0)"/><path d=" M 400.004 624.147 C 392.482 624.147 385.162 622.277 378.835 618.739 C 374.68 616.416 373.195 611.162 375.518 607.007 C 377.842 602.85 383.094 601.364 387.251 603.69 C 391.011 605.792 395.421 606.903 400.003 606.903 C 404.586 606.903 408.996 605.792 412.756 603.69 C 416.909 601.37 422.163 602.849 424.488 607.007 C 426.812 611.161 425.327 616.415 421.171 618.739 C 414.847 622.277 407.526 624.147 400.004 624.147 Z " fill="rgb(0,0,0)"/><path d=" M 305.175 468.976 C 281.407 468.976 262.071 449.639 262.071 425.871 C 262.071 402.103 281.407 382.767 305.175 382.767 C 328.943 382.767 348.279 402.103 348.279 425.871 C 348.279 449.639 328.943 468.976 305.175 468.976 Z  M 305.175 400.01 C 290.915 400.01 279.313 411.611 279.313 425.871 C 279.313 440.132 290.914 451.733 305.175 451.733 C 319.436 451.733 331.037 440.131 331.037 425.871 C 331.037 411.612 319.436 400.01 305.175 400.01 Z " fill="rgb(0,0,0)"/><path d=" M 305.175 443.113 C 300.414 443.113 296.554 439.253 296.554 434.492 L 296.554 417.251 C 296.554 412.49 300.414 408.63 305.175 408.63 C 309.936 408.63 313.796 412.49 313.796 417.251 L 313.796 434.492 C 313.796 439.253 309.937 443.113 305.175 443.113 Z " fill="rgb(0,0,0)"/><path d=" M 494.83 468.976 C 471.062 468.976 451.725 449.639 451.725 425.871 C 451.725 402.103 471.062 382.767 494.83 382.767 C 518.597 382.767 537.934 402.103 537.934 425.871 C 537.934 449.639 518.597 468.976 494.83 468.976 Z  M 494.83 400.01 C 480.57 400.01 468.968 411.611 468.968 425.871 C 468.968 440.132 480.57 451.733 494.83 451.733 C 509.089 451.733 520.691 440.131 520.691 425.871 C 520.691 411.612 509.09 400.01 494.83 400.01 Z " fill="rgb(0,0,0)"/><path d=" M 494.83 443.113 C 490.068 443.113 486.208 439.253 486.208 434.492 L 486.208 417.251 C 486.208 412.49 490.068 408.63 494.83 408.63 C 499.591 408.63 503.451 412.49 503.451 417.251 L 503.451 434.492 C 503.451 439.253 499.591 443.113 494.83 443.113 Z " fill="rgb(0,0,0)"/><path d=" M 640.858 358.851 L 640.858 358.851 C 635.485 339.571 632.762 319.176 632.762 298.229 L 632.762 150.069 C 632.762 139.425 626.662 130.266 616.844 126.172 C 607.051 122.087 596.28 124.188 588.736 131.66 C 570.056 150.159 541.206 178.848 518.856 201.238 C 516.664 203.435 513.568 204.301 510.782 203.501 C 462.491 189.629 338.267 189.655 289.246 203.547 C 286.461 204.336 283.376 203.467 281.193 201.278 C 258.767 178.811 229.916 150.123 211.272 131.661 C 203.726 124.191 192.955 122.089 183.161 126.173 C 173.343 130.266 167.244 139.424 167.244 150.069 L 167.244 298.192 C 167.244 318.525 164.341 339.583 158.617 360.782 C 150.469 390.953 148.084 422.218 151.527 453.706 C 164.189 569.469 257.326 662.305 372.984 674.449 C 382.088 675.405 391.148 675.881 400.153 675.881 C 427.162 675.881 453.664 671.589 479.235 663.052 C 511.906 652.143 541.514 634.866 567.238 611.7 C 619.834 564.336 650 496.604 650 425.87 C 650.002 403.169 646.925 380.622 640.858 358.851 Z  M 555.701 598.888 C 506.057 643.592 441.803 664.339 374.784 657.301 C 267.138 646.001 180.453 559.589 168.666 451.833 C 165.456 422.489 167.676 393.366 175.262 365.276 C 181.383 342.613 184.485 320.043 184.485 298.193 L 184.485 150.069 C 184.485 144.717 188.553 142.605 189.799 142.085 C 190.386 141.84 191.665 141.399 193.251 141.399 C 195.013 141.399 197.153 141.944 199.138 143.911 C 217.766 162.357 246.587 191.014 268.987 213.457 C 275.586 220.069 285.149 222.627 293.945 220.135 C 339.887 207.116 460.791 207.08 506.019 220.071 C 514.839 222.605 524.433 220.056 531.057 213.417 C 553.382 191.05 582.205 162.391 600.866 143.912 C 604.638 140.177 608.968 141.57 610.205 142.086 C 611.452 142.606 615.519 144.719 615.519 150.071 L 615.519 298.23 C 615.519 320.74 618.457 342.695 624.249 363.482 C 629.897 383.744 632.76 404.735 632.76 425.872 C 632.761 491.726 604.674 554.788 555.701 598.888 Z " fill="rgb(0,0,0)"/></g></g></svg>