<?xml version="1.0" encoding="UTF-8" standalone="no"?>
<!-- Generator: Gravit.io -->
<svg xmlns="http://www.w3.org/2000/svg" xmlns:xlink="http://www.w3.org/1999/xlink" style="isolation:isolate" viewBox="0 0 800 800" width="800pt" height="800pt"><defs><clipPath id="_clipPath_60PpFo5FiZbfrXNxx12365bul0GWjv5G"><rect width="800" height="800"/></clipPath></defs><g clip-path="url(#_clipPath_60PpFo5FiZbfrXNxx12365bul0GWjv5G)"><circle vector-effect="non-scaling-stroke" cx="400" cy="400.00000000000006" r="400" fill="rgb(185,185,185)"/><path d=" M 0 400 C 0 179.234 179.234 0 400 0 C 620.766 0 800 179.234 800 400 C 800 620.766 620.766 800 400 800 C 179.234 800 0 620.766 0 400 Z  M 15 400 C 14.99 373.95 17.61 347.96 22.83 322.43 C 27.9 297.68 35.42 273.49 45.27 250.21 C 64.65 204.48 92.68 162.92 127.82 127.82 C 162.92 92.68 204.48 64.65 250.21 45.27 C 273.49 35.42 297.68 27.9 322.44 22.83 C 347.96 17.61 373.95 14.99 400 15 C 426.05 14.99 452.04 17.61 477.56 22.83 C 502.32 27.9 526.51 35.42 549.79 45.27 C 595.52 64.65 637.08 92.68 672.18 127.82 C 707.32 162.92 735.35 204.48 754.73 250.21 C 764.58 273.49 772.1 297.68 777.17 322.44 C 782.39 347.96 785.01 373.95 785 400 C 785.01 426.05 782.39 452.04 777.17 477.56 C 772.1 502.32 764.58 526.51 754.73 549.79 C 735.35 595.52 707.32 637.08 672.18 672.18 C 637.08 707.32 595.52 735.35 549.79 754.73 C 526.51 764.58 502.32 772.1 477.56 777.17 C 452.04 782.39 426.05 785.01 400 785 C 373.95 785.01 347.96 782.39 322.44 777.17 C 297.68 772.1 273.49 764.58 250.21 754.73 C 204.48 735.35 162.92 707.32 127.82 672.18 C 92.68 637.08 64.65 595.52 45.27 549.79 C 35.42 526.51 27.9 502.32 22.83 477.56 C 17.61 452.04 14.99 426.05 15 400 Z " fill-rule="evenodd" fill="rgb(0,0,0)"/><g><g><path d=" M 532.812 157.942 C 497.656 157.942 470.312 185.938 431.25 184.698 L 407.812 306.379 L 459.139 373.497 L 473.242 453.711 L 509.375 439.192 C 514.672 436.158 545.766 420.346 564.062 392.317 C 594.28 346.026 642.187 357.161 642.187 306.38 C 642.187 292.057 567.969 157.942 532.812 157.942 Z " fill="rgb(135,115,100)"/><path d=" M 368.75 184.698 C 329.687 185.937 302.344 157.942 267.187 157.942 C 232.031 157.942 157.813 292.057 157.813 306.379 C 157.813 357.16 203.719 347.395 235.937 392.316 C 256.896 421.539 286.223 437.895 290.625 439.191 L 322.852 448.828 C 328.711 445.247 331.315 437.435 335.547 422.461 L 342.3 371.618 L 392.187 306.379 L 368.75 184.698 Z " fill="rgb(135,115,100)"/></g><g><path d=" M 330.042 499.112 C 331.602 486.237 337.836 462.182 360.937 431.379 L 337.5 407.941 C 331.883 420.299 317.211 474.004 324.448 499.667 C 325.291 502.657 329.668 502.195 330.042 499.112 Z " fill="rgb(255,235,210)"/><path d=" M 463.108 407.941 L 439.671 431.379 C 462.761 462.165 469.001 486.212 470.564 499.092 C 470.939 502.18 475.323 502.642 476.166 499.647 C 483.39 473.978 468.724 420.296 463.108 407.941 Z " fill="rgb(255,235,210)"/></g><path d=" M 509.375 267.316 C 509.375 251.691 494.727 181.379 400 181.379 C 305.273 181.379 290.625 251.691 290.625 267.316 C 290.625 282.941 329.687 282.941 337.5 302.473 C 337.5 302.473 337.5 348.275 337.5 356.986 C 337.5 365.697 329.687 407.941 329.687 407.941 L 361.569 439.823 C 365.861 499.588 369.266 599.351 384.375 626.691 C 394.629 645.246 421.113 651.707 454.687 618.879 C 468.407 605.465 476.519 590.227 481.619 580.219 C 483.951 575.643 482.088 570.079 477.494 567.782 L 477.494 567.782 C 473.407 565.739 468.467 566.954 465.829 570.686 C 456.638 583.688 436.113 611.036 431.25 603.255 C 427.034 596.51 435.916 473.375 438.423 439.832 L 470.312 407.941 C 470.312 407.941 462.5 365.697 462.5 356.986 C 462.5 348.275 462.5 302.473 462.5 302.473 C 470.312 282.941 509.375 282.941 509.375 267.316 Z " fill="rgb(159,137,118)"/><path d=" M 321.875 282.941 C 313.26 282.941 306.25 289.951 306.25 298.566 C 306.25 307.182 313.26 314.191 321.875 314.191 C 330.49 314.191 337.5 307.182 337.5 298.566 C 337.5 289.951 330.49 282.941 321.875 282.941 Z " fill="rgb(0,0,0)"/><path d=" M 478.125 282.941 C 469.51 282.941 462.5 289.951 462.5 298.566 C 462.5 307.182 469.51 314.191 478.125 314.191 C 486.74 314.191 493.75 307.182 493.75 298.566 C 493.75 289.951 486.74 282.941 478.125 282.941 Z " fill="rgb(0,0,0)"/><path d=" M 607.234 222.532 C 576.018 174.489 550.979 150.129 532.812 150.129 C 514.419 150.129 498.229 157.021 482.573 163.687 C 466.102 170.699 450.522 177.322 432.132 176.895 C 421.948 174.706 411.202 173.566 400 173.566 C 388.808 173.566 378.056 174.702 367.865 176.895 C 349.483 177.32 333.898 170.699 317.427 163.687 C 301.771 157.021 285.581 150.129 267.187 150.129 C 249.021 150.129 223.982 174.489 192.766 222.532 C 174.837 250.126 150 294.614 150 306.379 C 150 341.414 169.246 352.883 189.621 365.025 C 202.4 372.641 216.885 381.272 229.877 397.246 C 268.305 444.493 295.575 453.668 317.185 454.706 C 317.094 455.266 317.004 455.825 316.918 456.387 C 312.354 485.927 314.792 505.656 324.164 515.028 C 325.704 516.568 327.768 517.394 329.856 517.393 C 330.783 517.393 331.715 517.23 332.608 516.896 C 337.561 515.044 337.881 510.419 338.115 507.043 C 338.611 499.896 339.935 480.86 354.763 454.89 C 355.164 461.083 355.565 467.535 355.978 474.163 C 359.823 536.101 364.182 606.303 377.538 630.471 C 383.363 641.012 392.939 647.753 404.502 649.452 C 406.283 649.714 408.228 649.871 410.33 649.871 C 422.32 649.871 439.417 644.738 460.15 624.466 C 475.584 609.375 484.259 592.286 489.44 582.075 C 490.718 579.559 491.821 577.385 492.638 576.024 C 494.088 573.607 494.305 570.716 493.23 568.093 C 492.335 565.903 490.471 561.348 472.274 556.63 C 469.053 555.795 465.656 557.092 463.811 559.862 C 454.832 573.346 444.481 586.397 437.924 592.86 C 437.544 571.409 440.935 512.153 445.21 453.8 C 460.627 480.325 461.992 499.798 462.494 507.043 C 462.729 510.42 463.049 515.044 468.001 516.896 C 468.895 517.23 469.826 517.394 470.753 517.393 C 472.843 517.393 474.906 516.567 476.446 515.028 C 485.818 505.656 488.257 485.926 483.692 456.387 C 483.604 455.815 483.513 455.246 483.421 454.677 C 504.935 453.496 532.055 444.055 570.125 397.246 C 583.116 381.272 597.601 372.641 610.381 365.025 C 630.754 352.883 650 341.415 650 306.379 C 650 294.614 625.163 250.126 607.234 222.532 Z  M 331.135 467.991 C 331.445 465.142 331.848 462.074 332.358 458.773 C 334.548 444.6 337.905 431.374 340.714 422.205 L 350.7 432.191 C 341.427 445.413 335.259 457.503 331.135 467.991 Z  M 449.908 432.19 L 459.895 422.204 C 462.703 431.373 466.06 444.598 468.25 458.772 C 468.76 462.073 469.163 465.141 469.473 467.99 C 465.349 457.502 459.182 445.413 449.908 432.19 Z  M 602.38 351.604 C 589.175 359.473 572.739 369.267 558.001 387.388 C 522.392 431.17 498.781 438.621 480.443 439.158 C 479.664 435.623 478.845 432.218 478.015 428.996 C 478.139 428.867 478.267 428.743 478.384 428.604 C 507.138 394.485 525 344.658 525 298.566 C 525 273.065 519.604 250.534 508.979 231.573 C 507.872 228.451 508.196 224.635 509.915 221.022 C 511.919 216.811 515.517 213.537 519.541 212.267 C 523.655 210.968 525.938 206.579 524.638 202.464 C 523.339 198.35 518.95 196.065 514.835 197.367 C 506.631 199.958 499.694 206.134 495.805 214.312 C 492.167 221.96 491.715 230.475 494.564 237.675 C 494.592 237.744 494.632 237.805 494.661 237.873 C 494.737 238.05 494.826 238.222 494.916 238.396 C 494.993 238.543 495.062 238.697 495.146 238.838 C 504.587 255.513 509.375 275.605 509.375 298.568 C 509.375 337.744 495.435 379.788 472.572 410.737 C 471.867 408.729 471.212 407.018 470.635 405.658 C 469.489 399.247 462.5 359.251 462.5 337.631 C 462.5 333.316 459.002 329.818 454.688 329.818 C 450.373 329.818 446.875 333.316 446.875 337.631 C 446.875 358.442 452.632 393.393 454.704 405.3 L 435.63 424.374 C 433.23 425.552 431.495 427.921 431.273 430.778 C 431.241 431.189 428.065 472.338 425.527 513.913 C 420.248 600.394 422.676 604.276 424.625 607.396 C 426.594 610.547 429.827 612.384 433.495 612.437 C 438.646 612.531 445.633 609.759 461.733 589.292 C 466.479 583.258 470.767 577.279 473.547 573.295 C 474.389 573.573 475.199 573.856 475.949 574.133 C 475.805 574.417 475.657 574.708 475.507 575.005 C 470.761 584.356 462.816 600.008 449.226 613.295 C 433.78 628.396 418.706 635.746 406.771 633.994 C 398.283 632.747 393.625 627.28 391.212 622.914 C 379.557 601.824 374.941 527.479 371.571 473.195 C 370.61 457.726 369.703 443.113 368.725 430.763 C 368.724 430.742 368.719 430.722 368.717 430.701 C 368.709 430.615 368.696 430.529 368.687 430.443 C 368.674 430.338 368.659 430.232 368.643 430.128 C 368.632 430.063 368.624 429.995 368.612 429.931 C 368.598 429.852 368.576 429.774 368.56 429.695 C 368.537 429.594 368.513 429.493 368.486 429.392 C 368.468 429.321 368.454 429.248 368.434 429.178 C 368.413 429.106 368.385 429.037 368.361 428.967 C 368.33 428.868 368.296 428.771 368.26 428.673 C 368.232 428.6 368.21 428.523 368.181 428.451 C 368.155 428.389 368.123 428.329 368.097 428.267 C 368.054 428.167 368.009 428.069 367.961 427.972 C 367.927 427.9 367.896 427.826 367.859 427.756 C 367.832 427.704 367.799 427.654 367.771 427.603 C 367.77 427.601 367.769 427.599 367.768 427.597 C 367.712 427.496 367.654 427.397 367.595 427.3 C 367.553 427.231 367.514 427.16 367.47 427.093 C 367.442 427.051 367.409 427.012 367.381 426.97 C 367.377 426.965 367.373 426.96 367.37 426.955 C 367.305 426.859 367.236 426.765 367.166 426.672 C 367.114 426.604 367.064 426.533 367.011 426.467 C 366.978 426.426 366.94 426.388 366.906 426.348 C 366.906 426.347 366.905 426.347 366.904 426.346 C 366.832 426.261 366.759 426.177 366.683 426.094 C 366.618 426.023 366.554 425.952 366.487 425.885 C 366.478 425.875 366.47 425.865 366.461 425.855 L 345.86 405.255 C 347.773 393.411 353.124 358.429 353.124 337.63 C 353.124 333.315 349.626 329.817 345.312 329.817 C 340.997 329.817 337.499 333.315 337.499 337.63 C 337.499 359.23 331.04 399.14 329.951 405.707 C 329.325 407.185 328.611 409.066 327.839 411.295 C 304.733 380.293 290.625 337.978 290.625 298.566 C 290.625 275.602 295.415 255.507 304.857 238.832 C 304.937 238.702 304.999 238.56 305.07 238.424 C 305.166 238.242 305.258 238.06 305.338 237.874 C 305.367 237.806 305.407 237.745 305.436 237.675 C 308.285 230.475 307.834 221.96 304.195 214.312 C 300.306 206.134 293.369 199.958 285.165 197.367 C 281.049 196.066 276.661 198.35 275.362 202.464 C 274.062 206.578 276.345 210.968 280.459 212.267 C 284.483 213.537 288.081 216.811 290.085 221.022 C 291.803 224.635 292.128 228.45 291.021 231.572 C 280.396 250.535 275 273.066 275 298.566 C 275 344.651 292.858 394.475 321.606 428.593 C 321.875 428.911 322.17 429.193 322.475 429.458 C 321.684 432.547 320.904 435.802 320.161 439.173 C 301.738 438.781 278 431.65 241.999 387.387 C 227.261 369.267 210.826 359.473 197.62 351.603 C 177.708 339.737 165.674 332.564 165.625 306.535 C 166.412 300.5 182.906 266.15 206.773 229.656 C 237.62 182.49 258.597 165.754 267.187 165.754 C 282.394 165.754 296.438 171.733 311.307 178.063 C 319.531 181.563 327.895 185.11 336.74 187.823 C 330.661 190.927 324.928 194.521 319.589 198.596 C 316.159 201.213 315.5 206.115 318.117 209.546 C 320.734 212.977 325.637 213.637 329.067 211.018 C 340.716 202.13 354.619 195.853 370.133 192.378 C 370.336 192.341 370.537 192.3 370.734 192.249 C 379.97 190.229 389.767 189.191 400 189.191 C 410.264 189.191 420.074 190.239 429.32 192.265 C 429.5 192.311 429.684 192.346 429.868 192.378 C 445.967 195.981 460.318 202.599 472.235 212.03 C 473.671 213.166 475.381 213.718 477.078 213.718 C 479.384 213.718 481.667 212.701 483.209 210.753 C 485.887 207.369 485.314 202.456 481.932 199.778 C 476.157 195.208 469.896 191.231 463.232 187.828 C 472.088 185.115 480.461 181.567 488.693 178.063 C 503.562 171.732 517.606 165.754 532.812 165.754 C 541.403 165.754 562.38 182.489 593.227 229.656 C 617.094 266.151 633.588 300.5 634.375 306.535 C 634.326 332.564 622.292 339.737 602.38 351.604 Z " fill="rgb(0,0,0)"/></g></g></svg>