<?xml version="1.0" encoding="UTF-8" standalone="no"?>
<!-- Generator: Gravit.io -->
<svg xmlns="http://www.w3.org/2000/svg" xmlns:xlink="http://www.w3.org/1999/xlink" style="isolation:isolate" viewBox="0 0 800 800" width="800pt" height="800pt"><defs><clipPath id="_clipPath_zJLnbhqgrW0dwR1UEm6alBbNVjNDByuN"><rect width="800" height="800"/></clipPath></defs><g clip-path="url(#_clipPath_zJLnbhqgrW0dwR1UEm6alBbNVjNDByuN)"><circle vector-effect="non-scaling-stroke" cx="400.00000000000006" cy="399.99999999999994" r="400" fill="rgb(185,185,185)"/><path d=" M 0 400 C 0 179.234 179.234 0 400 0 C 620.766 0 800 179.234 800 400 C 800 620.766 620.766 800 400 800 C 179.234 800 0 620.766 0 400 Z  M 15 400 C 14.99 373.95 17.61 347.96 22.83 322.43 C 27.9 297.68 35.42 273.49 45.27 250.21 C 64.65 204.48 92.68 162.92 127.82 127.82 C 162.92 92.68 204.48 64.65 250.21 45.27 C 273.49 35.42 297.68 27.9 322.44 22.83 C 347.96 17.61 373.95 14.99 400 15 C 426.05 14.99 452.04 17.61 477.56 22.83 C 502.32 27.9 526.51 35.42 549.79 45.27 C 595.52 64.65 637.08 92.68 672.18 127.82 C 707.32 162.92 735.35 204.48 754.73 250.21 C 764.58 273.49 772.1 297.68 777.17 322.44 C 782.39 347.96 785.01 373.95 785 400 C 785.01 426.05 782.39 452.04 777.17 477.56 C 772.1 502.32 764.58 526.51 754.73 549.79 C 735.35 595.52 707.32 637.08 672.18 672.18 C 637.08 707.32 595.52 735.35 549.79 754.73 C 526.51 764.58 502.32 772.1 477.56 777.17 C 452.04 782.39 426.05 785.01 400 785 C 373.95 785.01 347.96 782.39 322.44 777.17 C 297.68 772.1 273.49 764.58 250.21 754.73 C 204.48 735.35 162.92 707.32 127.82 672.18 C 92.68 637.08 64.65 595.52 45.27 549.79 C 35.42 526.51 27.9 502.32 22.83 477.56 C 17.61 452.04 14.99 426.05 15 400 Z " fill-rule="evenodd" fill="rgb(0,0,0)"/><g><path d=" M 534.594 306.853 C 534.539 306.562 534.428 306.286 534.264 306.038 L 532.828 303.853 L 533.22 301.268 C 535.572 285.751 534.437 270.793 529.85 256.812 L 529.288 255.097 L 529.647 253.327 C 536.599 219.133 533.932 152.298 510.846 115.744 C 510.427 115.08 509.709 114.684 508.923 114.684 C 508.757 114.684 508.59 114.703 508.429 114.738 C 507.514 114.942 506.826 115.672 506.68 116.596 L 506.62 116.963 L 506.523 117.32 C 503.842 127.102 472.718 179.052 466.505 189.366 L 463.926 193.647 L 459.068 192.48 C 440.423 187.999 423.107 187.329 414.444 187.329 C 411.926 187.329 410.197 187.386 409.39 187.419 L 409.107 187.431 L 408.824 187.42 C 408.019 187.386 406.295 187.33 403.788 187.33 C 395.082 187.33 377.684 188.006 358.969 192.526 L 354.106 193.702 L 351.524 189.416 C 345.308 179.094 314.159 127.109 311.477 117.322 L 311.379 116.964 L 311.342 116.737 C 311.197 115.825 310.349 114.862 309.438 114.714 C 309.318 114.694 309.196 114.684 309.076 114.684 C 308.292 114.684 307.573 115.08 307.154 115.744 C 284.04 152.342 288.122 209.379 289.956 226.206 L 290.585 230.166 L 287.746 232.646 L 279.724 244.164 C 275.559 250.143 277.342 258.398 283.602 262.126 L 283.602 262.126 C 281.399 267.568 280.063 273.465 279.635 279.655 L 279.613 279.965 L 279.564 280.272 C 279.542 280.414 279.531 280.508 279.527 280.572 L 279.55 281.052 L 279.537 281.338 C 279.082 292.016 281.315 300.935 283.268 306.537 L 283.848 308.2 L 283.55 309.936 C 273.883 366.315 284.364 432.799 311.587 487.781 C 314.599 493.865 317.832 499.795 320.959 505.531 C 336.354 533.774 352.273 562.978 352.273 626.209 C 352.273 658.739 382.279 683.045 409.109 683.045 L 409.571 683.045 C 436.401 683.045 466.407 658.739 466.407 626.209 C 466.407 562.978 482.325 533.774 497.721 505.531 C 500.847 499.795 504.081 493.863 507.093 487.781 C 534.915 431.584 545.195 363.946 534.594 306.853 Z " fill="rgb(205,145,110)"/><g><path d=" M 302.601 138.058 C 292.805 164.457 292.363 195.482 293.717 216.86 L 294.485 228.994 L 304.439 222.012 C 319.382 211.53 333.503 204.532 342.716 200.508 L 349.833 197.4 L 345.832 190.745 C 331.98 167.703 321.615 149.7 315.022 137.242 L 307.9 123.778 L 302.601 138.058 Z " fill="rgb(150,105,95)"/><path d=" M 526.959 246.47 C 528.449 222.96 532.132 177.023 516.995 144.412 C 514.87 139.833 513.018 135.129 511.262 130.393 L 508.552 123.85 L 500.378 139.299 C 492.813 153.597 480.917 174.255 465.021 200.698 C 489.697 210.242 509.52 233.301 526.959 246.47 Z " fill="rgb(150,105,95)"/></g><path d=" M 407.965 410.231 L 407.965 410.231 C 387.875 410.231 371.59 426.516 371.59 446.606 L 371.59 601.199 L 444.34 601.199 L 444.34 446.606 C 444.34 426.516 428.054 410.231 407.965 410.231 Z " fill="rgb(225,161,120)"/><g><path d=" M 458.56 584.563 C 455.493 569.901 437.227 563.267 426.427 573.647 C 426.334 573.737 426.243 573.827 426.152 573.918 C 417.058 583.012 407.965 583.012 407.965 583.012 C 407.965 583.012 398.871 583.012 389.777 573.918 C 389.686 573.827 389.594 573.737 389.502 573.647 C 378.701 563.267 360.437 569.901 357.368 584.563 C 355.304 594.431 353.402 606.909 353.402 619.387 C 353.402 646.668 362.496 683.043 407.965 683.043 C 453.433 683.043 462.527 646.668 462.527 619.387 C 462.527 606.909 460.624 594.43 458.56 584.563 Z " fill="rgb(150,105,95)"/><path d=" M 460.254 196.527 C 460.254 196.527 355.676 159.394 284.062 243.133 C 284.062 243.133 288.988 252.698 285.199 278.085 C 285.199 278.085 337.488 294.377 402.281 216.702 C 402.281 216.702 415.164 240.573 411.375 245.12 C 411.375 245.12 456.844 220.777 460.254 196.527 Z " fill="rgb(150,105,95)"/></g><path d=" M 409.128 658.729 C 387.906 658.729 372.961 653.07 362.488 644.395 C 368.972 663.823 382.485 679.612 409.128 679.612 C 435.77 679.612 449.283 663.823 455.767 644.395 C 445.295 653.07 430.349 658.729 409.128 658.729 Z " fill="rgb(110,87,90)"/><path d=" M 327.258 327.25 C 317.228 327.25 309.07 335.409 309.07 345.438 C 309.07 355.466 317.228 363.625 327.258 363.625 C 337.286 363.625 345.445 355.466 345.445 345.438 C 345.445 335.409 337.286 327.25 327.258 327.25 Z " fill="rgb(0,0,0)"/><path d=" M 490.945 327.25 C 480.917 327.25 472.758 335.409 472.758 345.438 C 472.758 355.466 480.917 363.625 490.945 363.625 C 500.973 363.625 509.133 355.466 509.133 345.438 C 509.133 335.409 500.973 327.25 490.945 327.25 Z " fill="rgb(0,0,0)"/><path d=" M 541.296 306.757 C 541.069 305.53 540.604 304.408 539.957 303.427 C 542.823 284.517 540.5 268.545 536.325 255.822 C 543.542 220.326 540.729 151.43 516.608 113.238 C 514.556 109.991 510.689 108.383 506.939 109.218 C 503.292 110.031 500.525 112.987 499.939 116.655 C 498.397 122.282 482.492 150.728 460.656 186.985 C 435.528 180.946 412.759 181.59 409.101 181.741 C 405.43 181.59 382.56 180.945 357.361 187.034 C 335.506 150.748 319.592 122.285 318.049 116.655 C 317.463 112.987 314.696 110.031 311.05 109.218 C 307.301 108.384 303.432 109.991 301.381 113.238 C 277.027 151.798 281.296 210.99 283.184 228.212 C 283.2 228.359 283.231 228.5 283.253 228.644 C 273.642 237.038 264.29 246.889 256.181 258.338 C 253.278 262.436 254.247 268.111 258.345 271.014 C 259.941 272.145 261.775 272.688 263.593 272.688 C 266.443 272.688 269.25 271.352 271.022 268.85 C 273.024 266.024 275.118 263.315 277.273 260.702 C 274.671 267.126 273.276 273.774 272.822 280.318 C 272.746 280.796 272.695 281.282 272.695 281.781 C 272.695 281.917 272.71 282.048 272.716 282.183 C 272.289 292.17 273.996 301.815 276.82 309.919 C 266.908 367.732 277.524 435.505 305.467 491.942 C 308.535 498.139 311.803 504.134 314.963 509.93 C 329.949 537.423 345.445 565.852 345.445 627.344 C 345.445 663.777 379.052 691 409.101 691 L 409.563 691 C 439.612 691 473.219 663.777 473.219 627.344 C 473.219 565.851 488.715 537.423 503.7 509.93 C 506.86 504.133 510.127 498.138 513.196 491.942 C 541.648 434.477 552.154 365.248 541.296 306.757 Z  M 308.803 139.291 C 314.501 150.061 323.982 166.81 339.795 193.12 C 330.126 197.343 315.643 204.548 300.331 215.289 C 299.168 196.931 299.102 165.434 308.803 139.291 Z  M 496.897 483.872 C 493.988 489.747 490.95 495.323 487.732 501.226 C 471.654 530.719 455.03 561.216 455.03 627.345 C 455.03 655.1 428.1 672.814 409.562 672.814 L 409.1 672.814 C 390.56 672.814 363.632 655.1 363.632 627.345 C 363.632 561.217 347.007 530.719 330.93 501.226 C 327.713 495.323 324.675 489.747 321.765 483.872 C 297.71 435.287 287.277 377.901 292.784 327.026 C 293.915 326.785 295.021 326.345 296.033 325.651 C 300.172 322.806 301.22 317.144 298.375 313.005 C 297.34 311.5 296.303 309.579 295.341 307.345 C 295.165 305.859 294.624 304.46 293.796 303.259 C 292.556 299.499 291.589 295.171 291.143 290.567 C 335.059 287.718 375.007 264.764 407.163 223.736 C 410.262 219.782 409.569 214.067 405.616 210.969 C 401.663 207.871 395.947 208.564 392.85 212.517 C 364.231 249.031 330.53 269.072 292.548 272.234 C 293.732 267.903 295.599 263.651 298.35 259.69 C 301.215 255.566 300.196 249.899 296.072 247.033 C 294.733 246.102 293.23 245.588 291.714 245.451 C 318.203 220.945 348.255 209.003 355.888 206.228 C 382.218 198.697 408.374 199.913 408.627 199.926 C 408.938 199.942 409.257 199.942 409.569 199.926 C 409.78 199.917 428.254 199.056 449.753 203.233 C 437.293 218.056 419.289 232.143 406.06 236.837 C 401.326 238.517 398.85 243.715 400.531 248.448 C 401.854 252.176 405.359 254.504 409.101 254.504 C 410.111 254.504 411.137 254.334 412.142 253.978 C 431.605 247.072 456.992 226.031 471.196 205.035 C 471.657 204.353 472.004 203.627 472.26 202.883 C 472.415 202.67 472.564 202.45 472.703 202.221 C 491.899 170.536 502.894 151.191 509.218 139.232 C 519.124 164.985 522.533 199.839 521.303 227.33 C 518.118 223.227 515.729 220.937 515.348 220.58 C 511.694 217.16 505.98 217.351 502.543 220.989 C 499.104 224.625 499.267 230.371 502.886 233.828 C 504.164 235.049 534.006 264.309 518.612 315.54 C 517.167 320.349 519.894 325.42 524.703 326.866 C 525.099 326.984 525.495 327.066 525.89 327.13 C 531.37 377.978 520.937 435.32 496.897 483.872 Z " fill="rgb(0,0,0)"/><path d=" M 396.977 629.66 C 392.744 625.873 390.356 614.573 390.891 600.87 C 390.907 600.457 390.914 600.183 390.914 600.063 C 390.914 595.041 386.842 590.969 381.82 590.969 C 376.847 590.969 372.807 594.96 372.728 599.912 L 372.717 600.159 C 372.264 611.779 373.236 632.823 384.849 643.215 C 386.585 644.767 388.752 645.531 390.91 645.531 C 393.407 645.531 395.895 644.508 397.691 642.501 C 401.04 638.759 400.72 633.009 396.977 629.66 Z " fill="rgb(0,0,0)"/><path d=" M 445.379 599.918 C 445.301 594.962 441.26 590.969 436.286 590.969 C 431.264 590.969 427.192 595.041 427.192 600.063 C 427.192 600.182 427.198 600.454 427.214 600.863 C 427.732 614.392 425.336 625.992 421.252 629.726 C 417.544 633.115 417.287 638.868 420.675 642.574 C 422.469 644.537 424.925 645.531 427.39 645.531 C 429.581 645.531 431.778 644.744 433.524 643.149 C 444.881 632.765 445.832 611.762 445.389 600.166 L 445.379 599.918 Z " fill="rgb(0,0,0)"/></g></g></svg>