<?xml version="1.0" encoding="iso-8859-1"?>
<!-- Uploaded to: SVG Repo, www.svgrepo.com, Generator: SVG Repo Mixer Tools -->
<svg height="800px" width="800px" version="1.1" id="Layer_1" xmlns="http://www.w3.org/2000/svg" xmlns:xlink="http://www.w3.org/1999/xlink" 
	 viewBox="0 0 512 512" xml:space="preserve">
<path style="fill:#A3875E;" d="M475.565,19.222c46.629,2.571,29.674,147.815-46.188,171.451h-0.013
	c-0.731-37.578-15.971-64.403-46.642-87.296c-5.749-4.299-11.295-8.749-16.892-13.16C439.726,58.566,426.654,16.513,475.565,19.222z
	"/>
<path style="fill:#DBB67E;" d="M201.654,264.746c0.164,1.21,0.353,2.358,0.567,3.442c1.236,6.265,3.845,11.925,7.261,16.993
	c-14.27,61.201-45.507,94.568-15.077,133.646c18.165,23.321,55.277,21.43,61.592,0c6.315,21.43,43.427,23.321,61.592,0
	c30.43-39.078-0.769-72.509-15.039-133.71c3.404-5.043,5.988-10.69,7.223-16.93c0.214-1.084,0.403-2.231,0.567-3.442
	c5.231-38.07-12.858-139.155-53.487-138.865h-1.713C214.512,125.59,196.422,226.676,201.654,264.746z M429.365,190.674
	c0.567,27.984-6.934,61.932-22.085,104.678c-40.969,115.494-3.265,197.281-150.929,197.545h-0.706
	c-147.664-0.264-109.96-82.052-150.929-197.545c-15.165-42.746-22.653-76.706-22.085-104.691
	c0.731-37.578,15.984-64.391,46.642-87.283c5.749-4.299,11.282-8.736,16.879-13.16c25.968-20.434,53.247-40.111,108.838-40.111
	h2.017c55.592,0,82.87,19.665,108.826,40.111c5.597,4.412,11.143,8.861,16.892,13.16
	C413.394,126.271,428.634,153.096,429.365,190.674z"/>
<path style="fill:#A3875E;" d="M302.551,285.116c14.27,61.201,45.469,94.632,15.039,133.71c-18.165,23.321-55.277,21.43-61.592,0
	l0.782-100.733C256.779,318.094,287.563,307.378,302.551,285.116z"/>
<path style="fill:#F0DF9E;" d="M256.854,125.88c40.629-0.29,58.718,100.796,53.487,138.865
	c-1.714-25.527-35.271-26.573-53.562,3.442h-1.563c-18.291-30.014-51.848-28.968-53.562-3.442
	c-5.231-38.07,12.858-139.155,53.487-138.865C255.141,125.88,256.854,125.88,256.854,125.88z"/>
<path style="fill:#6E5B3F;" d="M310.341,264.746c-0.164,1.21-0.353,2.358-0.567,3.442c-1.236,6.239-3.82,11.887-7.223,16.93
	c-14.988,22.262-45.771,32.977-45.771,32.977h-1.563c0,0-30.72-10.703-45.734-32.913c-3.416-5.068-6.026-10.727-7.261-16.993
	c-0.214-1.084-0.403-2.231-0.567-3.442c1.714-25.527,35.271-26.573,53.562,3.442h1.563
	C275.07,238.172,308.627,239.219,310.341,264.746z"/>
<g>
	<path style="fill:#A3875E;" d="M256.779,318.094l-0.782,100.733c-6.315,21.43-43.427,23.321-61.592,0
		c-30.43-39.078,0.807-72.445,15.077-133.646c15.013,22.212,45.734,32.913,45.734,32.913H256.779z"/>
	<path style="fill:#A3875E;" d="M146.15,90.218c-5.597,4.424-11.131,8.861-16.879,13.16c-30.657,22.892-45.911,49.705-46.642,87.283
		h-0.038C6.756,167-10.187,21.795,36.43,19.222C85.34,16.513,72.268,58.566,146.15,90.218z"/>
</g>
<path d="M476.147,8.705c-30.213-1.671-42.202,12.37-54.903,27.238c-10.792,12.635-24.08,28.181-53.925,42.072
	c-4.53-3.502-8.755-6.646-13.235-9.728c-4.793-3.299-11.353-2.087-14.649,2.706c-3.299,4.792-2.087,11.352,2.705,14.65
	c5.612,3.863,10.907,7.919,17.123,12.813c0.022,0.018,0.044,0.035,0.066,0.053l3.306,2.614c4.454,3.524,9.06,7.166,13.784,10.7
	c28.684,21.41,41.764,45.793,42.411,79.067c0.528,26.034-6.298,58.11-21.483,100.943c-11.119,31.346-16.538,60.025-21.319,85.328
	c-6.36,33.655-11.383,60.238-26.791,77.833c-16.502,18.845-45.156,27.287-92.89,27.372h-0.687
	c-47.753-0.085-76.407-8.528-92.909-27.373c-15.406-17.594-20.431-44.178-26.791-77.833c-4.782-25.303-10.201-53.982-21.319-85.328
	C99.458,249.03,92.631,216.95,93.16,190.867c0.647-33.249,13.727-57.628,42.418-79.051c4.894-3.66,9.664-7.439,14.276-11.094
	l2.777-2.199c0.035-0.027,0.07-0.055,0.104-0.082c27.229-21.421,52.072-37.8,102.252-37.8c0.34,0,0.676-0.019,1.009-0.051
	c0.332,0.032,0.668,0.051,1.009,0.051c8.003,0,15.692,0.436,22.854,1.296c0.426,0.052,0.849,0.076,1.268,0.076
	c5.257,0,9.804-3.929,10.446-9.28c0.693-5.776-3.427-11.021-9.204-11.715c-7.992-0.96-16.526-1.446-25.364-1.446
	c-0.34,0-0.676,0.019-1.009,0.051c-0.332-0.032-0.668-0.051-1.009-0.051c-53.631,0-82.486,17.058-110.313,38.447
	c-29.847-13.891-43.134-29.439-53.925-42.075C78.049,21.076,66.049,7.029,35.85,8.705C16.993,9.745,4.25,25.841,0.892,52.866
	c-3.19,25.67,2.285,57.328,14.646,84.684c13.294,29.422,33.196,50.609,56.588,60.483c0.708,27.161,7.99,59.485,22.661,100.842
	c10.575,29.813,15.834,57.643,20.474,82.196c6.681,35.353,12.45,65.884,31.643,87.8c20.845,23.805,54.376,34.464,108.741,34.562
	h0.725c54.346-0.098,87.877-10.757,108.722-34.562c19.192-21.917,24.961-52.448,31.642-87.8
	c4.639-24.554,9.898-52.384,20.475-82.199c14.671-41.389,21.952-73.713,22.659-100.834c23.386-9.871,43.284-31.048,56.58-60.457
	c12.367-27.354,17.847-59.014,14.662-84.691C507.754,25.849,495.01,9.745,476.147,8.705z M21.801,55.465
	c0.73-5.878,3.986-25.105,15.213-25.724c19.793-1.097,25.785,5.916,37.716,19.888c10.385,12.159,24.05,28.144,51.58,42.777
	c-1.112,0.852-2.227,1.699-3.34,2.532c-29.439,21.983-45.497,47.747-49.741,80.188C35.067,153.279,17.15,92.88,21.801,55.465z
	 M438.766,175.132c-4.245-32.458-20.302-58.221-49.733-80.189c-1.118-0.835-2.235-1.684-3.351-2.54
	c27.533-14.633,41.197-30.617,51.584-42.777c11.933-13.971,17.919-20.985,37.72-19.886c11.232,0.619,14.487,19.86,15.217,25.743
	C494.845,92.901,476.921,153.288,438.766,175.132z"/>
<path d="M315.603,70.995c1.312,0.539,2.668,0.794,4.004,0.794c4.144,0,8.072-2.46,9.746-6.529c2.214-5.38-0.354-11.536-5.734-13.749
	c-1.184-0.487-2.384-0.962-3.602-1.425c-5.438-2.067-11.522,0.666-13.589,6.104c-2.067,5.439,0.666,11.522,6.105,13.59
	C313.571,70.175,314.594,70.58,315.603,70.995z"/>
<path d="M228.886,446.153c3.064,0,6.125-0.278,9.135-0.849c7.019-1.333,13.154-4.197,17.977-8.235
	c4.824,4.039,10.958,6.902,17.977,8.235c3.011,0.571,6.07,0.849,9.135,0.849c16.215,0,32.596-7.768,42.79-20.854
	c24.94-32.027,14.192-61.47,1.746-95.561c-4.626-12.671-9.819-26.897-13.821-42.822c3.037-5.343,5.145-10.938,6.284-16.688
	c0.111-0.558,0.213-1.137,0.311-1.72c0.334-1.06,0.5-2.186,0.478-3.352c2.107-16.837,0.265-42.29-4.873-66.842
	c-3.597-17.19-12.078-48.811-28.447-67.448c-9.047-10.299-19.319-15.519-30.541-15.519c-0.085,0-0.173,0-0.258,0.001
	c-0.264,0.002-0.524,0.024-0.783,0.045c-0.259-0.021-0.518-0.043-0.783-0.045c-0.086-0.001-0.173-0.001-0.258-0.001
	c-11.221,0-21.495,5.221-30.541,15.519c-16.369,18.637-24.849,50.258-28.447,67.448c-5.141,24.564-6.981,50.029-4.872,66.853
	c-0.021,1.16,0.145,2.282,0.477,3.336c0.099,0.59,0.202,1.17,0.312,1.722c1.13,5.732,3.258,11.329,6.312,16.705
	c-4.008,15.955-9.201,30.221-13.839,42.907c-12.446,34.045-23.197,63.447,1.735,95.463
	C196.288,438.387,212.668,446.153,228.886,446.153z M218.218,279.291c-2.878-4.27-4.783-8.691-5.663-13.154
	c-0.099-0.503-0.193-1.045-0.282-1.609c0.529-4.474,2.579-7.121,6.29-8.029c7.44-1.82,19.324,3.492,27.659,17.17
	c1.912,3.138,5.321,5.052,8.995,5.052h1.562c3.674,0,7.083-1.914,8.995-5.052c8.336-13.679,20.221-18.991,27.66-17.17
	c3.722,0.911,5.774,3.572,6.291,8.022c-0.089,0.559-0.182,1.106-0.283,1.62c-0.882,4.453-2.764,8.841-5.604,13.057
	c-0.013,0.02-0.025,0.039-0.038,0.058c-10.422,15.46-30.552,24.841-37.799,27.838C248.74,304.088,228.643,294.716,218.218,279.291z
	 M309.279,412.352c-8.536,10.957-21.909,14.045-31.375,12.251c-3.389-0.644-9.14-2.466-11.357-7.537l0.712-91.875
	c7.379-3.292,19.359-9.469,30.128-18.778c3.377,11.12,7.071,21.239,10.469,30.549C320.817,372.467,326.292,390.504,309.279,412.352z
	 M240.246,144.769c4.937-5.621,9.753-8.355,14.723-8.355c0.059,0,0.114,0.001,0.174,0c0.289,0,0.572-0.02,0.855-0.043
	c0.283,0.023,0.567,0.043,0.855,0.043c0.06,0,0.117,0,0.174,0c4.969,0,9.786,2.734,14.723,8.355
	c16.049,18.273,26.245,59.831,28.504,91.785c-0.596-0.185-1.192-0.369-1.808-0.519c-12.263-3.003-28.946,1.088-42.447,15.709
	c-13.502-14.622-30.186-18.709-42.447-15.709c-0.616,0.151-1.215,0.335-1.811,0.52C213.999,204.609,224.195,163.044,240.246,144.769
	z M204.147,337.071c3.412-9.332,7.118-19.482,10.507-30.636c11.506,9.932,24.361,16.297,31.53,19.388l-0.707,91.171
	c-2.196,5.124-7.982,6.963-11.387,7.609c-9.465,1.797-22.84-1.295-31.374-12.25C185.715,390.521,191.19,372.515,204.147,337.071z"/>
<path d="M148.193,170.231c-17.75,0-32.192,14.435-32.192,32.178c0,5.818,4.717,10.534,10.534,10.534
	c5.817,0,10.534-4.716,10.534-10.534c0-6.126,4.989-11.109,11.123-11.109c6.126,0,11.109,4.984,11.109,11.109
	c0,5.818,4.717,10.534,10.534,10.534s10.534-4.716,10.534-10.534C180.371,184.666,165.936,170.231,148.193,170.231z"/>
<path d="M352.692,202.409c0-6.126,4.984-11.109,11.111-11.109c6.132,0,11.122,4.984,11.122,11.109
	c0,5.818,4.717,10.534,10.534,10.534c5.817,0,10.534-4.716,10.534-10.534c0-17.743-14.44-32.178-32.191-32.178
	c-17.744,0-32.179,14.435-32.179,32.178c0,5.818,4.717,10.534,10.534,10.534C347.975,212.944,352.692,208.227,352.692,202.409z"/>
</svg>